<svg width="700" height="575" viewBox="0 0 700 575" fill="none" xmlns="http://www.w3.org/2000/svg">
<mask id="mask0_118_60" style="mask-type:luminance" maskUnits="userSpaceOnUse" x="0" y="0" width="700" height="589">
<path d="M0 588.998H699.064V0.658447H0V588.998Z" fill="white"/>
</mask>
<g mask="url(#mask0_118_60)">
<path d="M103.739 189.787L104.364 188.014L104.885 186.242L105.511 184.469L106.241 182.697L106.866 180.925L107.492 179.256L108.222 177.484L108.952 175.816L109.681 174.148L110.411 172.479L111.245 170.811L111.975 169.143L112.809 167.475L113.539 165.911L114.373 164.243L115.207 162.679L116.875 159.447L118.648 156.215L120.42 153.087L122.193 149.959L123.965 146.831L125.842 143.808L127.718 140.68L129.595 137.657L130.221 138.699L130.95 139.846L132.306 142.14L133.661 144.433L134.912 146.727L136.268 149.021L136.893 150.272L137.415 151.419L138.04 152.566L138.561 153.817L139.187 154.964L139.708 156.215" stroke="#747D62" stroke-width="5" stroke-miterlimit="10" stroke-linecap="round" stroke-linejoin="round"/>
<path d="M498.363 173.209H498.05H497.842L497.529 173.314L497.216 173.522L497.007 173.731L496.695 174.043L496.382 174.356L496.069 174.669" stroke="#747D62" stroke-width="5" stroke-miterlimit="10" stroke-linecap="round" stroke-linejoin="round"/>
<path d="M448.631 335.021L448.423 335.229L448.318 335.438L448.11 335.542L448.006 335.751L447.797 335.855L447.693 336.063L447.484 336.168H447.38L447.171 336.272L447.067 336.376H446.859L446.754 336.48H446.65H446.442H446.337L446.233 336.376H446.129L445.92 336.272L445.816 336.168L445.712 336.063L445.608 335.959L445.399 335.855L445.295 335.751L445.19 335.542L445.086 335.438L444.982 335.229L444.878 335.021L444.773 334.812L444.669 334.5L444.565 334.291L444.461 333.978L444.356 333.77L444.252 333.457L444.148 333.144L444.044 332.727L443.939 332.414L443.835 332.102L443.731 331.685L443.627 331.267L443.522 330.85V330.433L443.418 330.016L443.314 329.599L443.21 329.078L443.105 328.661V328.14L443.001 327.618L442.897 327.097V326.576L442.793 325.95L442.688 325.429V324.803L442.584 324.282L442.48 323.656V323.031L442.375 322.405V321.676L442.271 321.05V320.32L442.167 319.695V318.965L442.063 318.235V317.505L441.958 316.775V316.045V315.211L441.854 314.482V313.648L441.75 312.918V312.084V311.25L441.646 310.415V309.581V308.643L441.541 307.809V306.975V306.037V305.202L441.437 304.264V303.326V302.387V301.449V300.511L441.333 299.572V298.53V297.591V296.549V295.611V294.568V293.63L441.229 292.587V291.544V290.502V289.459V288.417V287.374V286.227V285.185V284.142V282.995V281.952V280.806V279.763V278.616V277.469V276.427V275.28V274.133V272.986V271.839V270.692V269.546V268.399V267.252V266.105V264.958V263.811V262.664V261.517V260.371V259.12V257.973L441.333 256.826V255.679V254.428V253.281V252.134V250.987V249.736V248.589V247.442V246.296V245.044V243.898V242.751V241.604L441.437 240.457V239.206V238.059V236.912V235.765V234.618V233.472V232.325V231.178V230.031V228.884V227.737V226.695V225.548V224.401V223.254V222.211V221.065V220.022V218.875V217.833V216.686V215.643V214.6V213.558V212.515V211.473V210.43L441.333 209.387V208.345V207.302V206.364V205.321V204.279V203.34L441.229 202.402V201.464V200.421V199.483V198.544L441.124 197.71V196.772V195.834V195L441.02 194.061V193.227V192.393V191.455L440.916 190.621V189.891L440.812 189.057V188.223V187.389L440.707 186.659V185.929L440.603 185.095V184.365V183.635L440.499 182.905V182.28L440.395 181.55V180.924L440.29 180.195V179.569L440.186 178.944L440.082 178.318V177.692L439.977 177.067V176.546L439.873 175.92L439.769 175.399V174.877L439.665 174.252L439.56 173.835L439.456 173.313V172.792L439.352 172.375L439.248 171.854L439.143 171.437L439.039 171.02V170.603L438.935 170.186L438.831 169.873L438.726 169.456L438.622 169.143L438.518 168.83L438.414 168.518L438.309 168.205L438.205 167.892L438.101 167.579L437.997 167.371L437.892 167.162L437.788 166.954L437.684 166.745L437.58 166.537L437.475 166.328L437.371 166.224L437.162 166.015L437.058 165.911L436.954 165.807L436.85 165.702L436.745 165.598H436.537L436.433 165.494H436.328H436.12H436.016H435.911H435.703L435.599 165.598H435.494L435.286 165.702L435.182 165.807L434.973 165.911L434.869 166.015L434.66 166.224L434.556 166.328L434.347 166.537L434.243 166.745L434.035 166.954" stroke="#747D62" stroke-width="5" stroke-miterlimit="10" stroke-linecap="round" stroke-linejoin="round"/>
<path d="M386.492 327.201L386.388 327.41L386.179 327.618L386.075 327.827L385.866 327.931L385.762 328.139L385.554 328.244L385.449 328.348L385.241 328.452L385.137 328.556H385.032L384.824 328.661H384.719H384.511H384.407H384.302H384.094H383.99L383.885 328.556L383.781 328.452L383.573 328.348L383.468 328.244L383.364 328.139L383.26 328.035L383.156 327.827L383.051 327.618L382.947 327.41L382.739 327.201L382.634 326.992L382.53 326.784L382.426 326.575L382.322 326.263L382.217 325.95L382.113 325.637L382.009 325.324L381.904 325.012V324.699L381.8 324.282L381.696 323.969L381.592 323.552L381.487 323.135L381.383 322.718L381.279 322.301V321.779L381.175 321.362L381.07 320.841L380.966 320.32V319.799L380.862 319.277L380.758 318.756V318.235L380.653 317.609L380.549 317.088V316.462L380.445 315.837V315.211L380.341 314.586L380.236 313.96V313.334L380.132 312.605V311.979L380.028 311.249V310.519L379.924 309.79V309.06V308.33L379.819 307.496V306.766L379.715 305.932V305.098V304.368L379.611 303.534V302.7V301.762L379.506 300.927V300.093V299.155V298.321L379.402 297.383V296.444V295.61V294.672L379.298 293.734V292.691V291.753V290.814V289.772V288.833L379.194 287.791V286.852V285.81V284.767V283.725V282.682V281.639V280.597V279.554V278.512V277.469L379.089 276.322V275.279V274.133V273.09V271.943V270.901V269.754V268.607V267.564V266.417V265.271V264.124L379.194 262.977V261.83V260.683V259.536V258.389V257.243V256.096V254.949V253.698V252.551V251.404V250.257V249.11V247.859V246.712V245.565V244.419L379.298 243.167V242.021V240.874V239.727V238.476V237.329V236.182V235.035V233.784V232.637V231.49V230.343V229.197V228.05V226.903L379.402 225.756V224.609V223.462V222.315V221.169V220.022V218.875V217.728V216.685V215.538V214.392V213.349V212.202V211.16V210.013V208.97V207.927L379.298 206.781V205.738V204.695V203.653V202.61V201.568V200.629V199.587V198.544V197.606L379.194 196.563V195.625V194.582V193.644V192.706V191.767L379.089 190.829V189.89V189.056V188.118L378.985 187.18V186.346V185.407L378.881 184.573V183.739V182.905L378.777 182.071V181.237V180.507L378.672 179.673V178.839V178.109L378.568 177.379V176.649L378.464 175.92V175.19L378.36 174.46V173.73L378.255 173.105V172.479L378.151 171.749V171.124L378.047 170.498L377.943 169.873V169.351L377.838 168.726L377.734 168.204V167.579L377.63 167.058L377.526 166.536V166.015L377.421 165.598L377.317 165.077L377.213 164.555V164.138L377.108 163.721L377.004 163.304L376.9 162.887L376.796 162.47L376.691 162.053V161.74L376.587 161.428L376.483 161.01L376.379 160.698L376.274 160.385L376.17 160.176L376.066 159.864L375.962 159.655L375.857 159.342L375.753 159.134L375.649 158.925L375.44 158.717L375.336 158.612L375.232 158.404L375.128 158.3L375.023 158.091L374.919 157.987L374.711 157.883H374.606L374.502 157.778H374.398L374.189 157.674H374.085H373.981H373.772L373.668 157.778H373.564L373.355 157.883L373.251 157.987L373.042 158.091L372.938 158.195L372.73 158.3L372.625 158.404L372.417 158.612L372.313 158.821L372.104 158.925L372 159.134" stroke="#747D62" stroke-width="5" stroke-miterlimit="10" stroke-linecap="round" stroke-linejoin="round"/>
<path d="M324.457 319.486L324.353 319.695L324.144 319.903L323.936 320.112L323.832 320.216L323.623 320.32L323.519 320.529L323.31 320.633L323.206 320.737H323.102L322.893 320.842H322.789L322.581 320.946H322.476H322.372H322.164L322.059 320.842H321.955L321.851 320.737H321.642L321.538 320.633L321.434 320.529L321.329 320.32L321.225 320.216L321.017 320.007L320.912 319.903L320.808 319.695L320.704 319.486L320.6 319.278L320.495 319.069L320.391 318.756L320.287 318.548L320.183 318.235L320.078 317.922L319.974 317.609L319.87 317.297L319.766 316.88L319.661 316.567L319.557 316.15V315.837L319.453 315.42L319.349 315.003L319.244 314.482L319.14 314.065V313.648L319.036 313.126L318.931 312.605L318.827 312.084V311.562L318.723 311.041L318.619 310.52V309.894L318.514 309.269L318.41 308.747V308.122L318.306 307.496V306.871L318.202 306.141V305.515L318.097 304.89V304.16L317.993 303.43V302.7L317.889 301.97V301.241L317.785 300.511V299.781L317.68 298.947V298.217V297.383L317.576 296.549V295.715V294.881L317.472 294.047V293.213V292.274L317.368 291.44V290.502V289.668V288.729L317.263 287.791V286.853V285.914V284.976V284.038L317.159 283.099V282.057V281.118V280.076V279.033V278.095V277.052V276.01L317.055 274.967V273.925V272.882V271.839V270.797V269.65V268.607V267.565V266.418V265.375V264.228V263.081V262.039V260.892V259.745V258.598V257.451V256.409V255.262V254.115V252.968V251.821V250.675V249.423V248.277V247.13L317.159 245.983V244.836V243.689V242.438V241.291V240.144V238.997V237.746V236.599V235.453V234.306V233.055V231.908V230.761L317.263 229.614V228.363V227.216V226.069V224.922V223.775V222.629V221.377V220.231V219.084V217.937V216.79V215.643V214.496V213.349V212.307V211.16V210.013V208.866V207.824V206.677V205.53V204.487V203.34V202.298V201.255V200.108V199.066V198.023V196.981V195.938V194.895V193.853V192.81L317.159 191.768V190.829V189.787V188.848V187.806V186.867V185.929L317.055 184.991V184.052V183.114V182.176L316.951 181.237V180.299V179.465V178.527L316.846 177.692V176.858V176.024L316.742 175.19V174.356V173.522L316.638 172.688V171.958V171.124L316.533 170.394V169.664L316.429 168.935V168.205L316.325 167.475V166.745L316.221 166.015V165.39L316.116 164.66V164.034L316.012 163.409V162.783L315.908 162.158L315.804 161.532V161.011L315.699 160.385L315.595 159.864V159.343L315.491 158.821L315.387 158.3V157.779L315.282 157.257L315.178 156.84L315.074 156.319V155.902L314.97 155.485L314.865 155.068L314.761 154.755L314.657 154.338L314.553 153.921L314.448 153.608L314.344 153.296L314.24 152.983L314.136 152.67L314.031 152.357L313.927 152.149L313.823 151.836L313.718 151.627L313.614 151.419L313.51 151.21L313.406 151.002L313.301 150.793L313.197 150.689L313.093 150.585L312.884 150.376L312.78 150.272L312.676 150.168H312.572L312.467 150.064L312.259 149.959H312.155H312.05H311.842H311.738H311.633L311.425 150.064H311.32L311.112 150.168L311.008 150.272L310.799 150.376L310.695 150.481L310.591 150.689L310.382 150.793L310.174 151.002L310.069 151.21L309.861 151.419" stroke="#747D62" stroke-width="5" stroke-miterlimit="10" stroke-linecap="round" stroke-linejoin="round"/>
<path d="M262.423 311.771L262.214 311.979L262.11 312.084L261.901 312.292L261.797 312.501L261.589 312.605L261.484 312.709L261.276 312.813L261.171 312.918L260.963 313.022L260.859 313.126H260.65L260.546 313.23H260.442H260.233H260.129L260.025 313.126H259.816L259.712 313.022L259.608 312.918L259.503 312.813L259.399 312.709L259.191 312.605L259.086 312.501L258.982 312.292L258.878 312.084L258.773 311.979L258.669 311.771L258.565 311.458L258.461 311.25L258.356 311.041L258.252 310.728L258.148 310.415L258.044 310.103L257.939 309.79L257.835 309.477L257.731 309.164L257.627 308.747L257.522 308.435L257.418 308.017L257.314 307.6V307.183L257.21 306.766L257.105 306.245L257.001 305.828L256.897 305.307V304.89L256.793 304.368L256.688 303.847V303.326L256.584 302.7L256.48 302.179V301.553L256.375 300.928L256.271 300.406V299.781L256.167 299.155V298.426L256.063 297.8V297.07L255.958 296.445V295.715L255.854 294.985V294.255L255.75 293.525V292.795L255.646 291.961V291.232V290.398L255.541 289.668V288.834V288L255.437 287.165V286.331V285.393L255.333 284.559V283.725V282.787V281.848L255.229 281.014V280.076V279.137V278.199L255.124 277.261V276.218V275.28V274.341V273.299V272.361V271.318L255.02 270.275V269.337V268.294V267.252V266.209V265.167V264.02V262.977V261.935V260.892V259.745V258.702V257.556V256.513V255.366V254.219V253.177V252.03V250.883V249.736V248.589V247.442V246.296V245.149V244.002V242.855V241.708V240.561V239.414V238.267V237.016V235.87V234.723V233.576L255.124 232.429V231.178V230.031V228.884V227.737V226.486V225.339V224.192V222.941V221.794V220.648V219.501V218.354V217.103L255.229 215.956V214.809V213.662V212.515V211.368V210.222V209.075V207.928V206.781V205.634V204.487V203.34V202.298V201.151V200.004V198.857V197.815V196.668V195.625V194.583V193.436V192.393V191.35V190.308V189.161V188.118L255.124 187.076V186.137V185.095V184.052V183.01V182.071V181.029V180.09L255.02 179.152V178.109V177.171V176.233V175.294L254.916 174.356V173.522V172.584V171.645L254.812 170.811V169.977V169.039L254.707 168.205V167.371V166.537L254.603 165.702V164.973V164.139L254.499 163.409V162.575L254.395 161.845V161.115L254.29 160.385V159.655V158.926L254.186 158.3V157.57L254.082 156.945L253.978 156.319V155.694L253.873 155.068V154.442L253.769 153.817L253.665 153.191V152.67L253.56 152.149L253.456 151.523V151.002L253.352 150.585L253.248 150.063L253.143 149.542V149.125L253.039 148.604L252.935 148.187L252.831 147.77L252.726 147.353V146.936L252.622 146.623L252.518 146.206L252.414 145.893L252.309 145.58L252.205 145.163L252.101 144.955L251.997 144.642L251.892 144.329L251.788 144.121L251.684 143.808L251.58 143.599L251.475 143.391L251.371 143.182L251.267 143.078L251.058 142.87L250.954 142.765L250.85 142.661L250.745 142.557L250.641 142.452L250.433 142.348L250.328 142.244H250.224H250.12H249.911H249.807H249.703H249.494L249.39 142.348H249.182L249.077 142.452L248.973 142.557L248.765 142.661L248.66 142.765L248.452 142.974L248.347 143.078L248.139 143.287L247.93 143.495L247.826 143.704" stroke="#747D62" stroke-width="5" stroke-miterlimit="10" stroke-linecap="round" stroke-linejoin="round"/>
<path d="M200.283 303.951L200.179 304.16L199.971 304.368L199.866 304.577L199.658 304.681L199.554 304.889L199.345 304.994L199.241 305.098L199.032 305.202L198.928 305.306H198.72L198.615 305.411H198.511H198.302H198.198H198.094H197.885L197.781 305.306H197.677L197.573 305.202L197.364 305.098L197.26 304.994L197.156 304.889L197.051 304.681L196.947 304.577L196.843 304.368L196.634 304.16L196.53 303.951L196.426 303.742L196.322 303.534L196.217 303.221L196.113 303.013L196.009 302.7L195.904 302.387L195.8 302.074L195.696 301.762L195.592 301.449V301.032L195.487 300.719L195.383 300.302L195.279 299.885L195.175 299.468L195.07 299.051V298.529L194.966 298.112L194.862 297.591L194.758 297.07V296.549L194.653 296.027L194.549 295.506V294.985L194.445 294.359L194.341 293.838V293.212L194.236 292.587L194.132 291.961V291.336L194.028 290.71V289.98L193.924 289.355V288.625L193.819 287.895V287.269L193.715 286.54V285.705L193.611 284.976V284.246V283.412L193.507 282.682V281.848V281.014L193.402 280.18V279.346V278.512L193.298 277.677V276.843V275.905L193.194 275.071V274.133V273.194V272.256L193.089 271.318V270.379V269.441V268.503V267.564V266.522L192.985 265.583V264.541V263.602V262.56V261.517V260.475V259.432V258.389V257.347V256.304L192.881 255.262V254.115V253.072V252.029V250.883V249.84V248.693V247.651V246.504V245.357V244.21V243.167V242.021V240.874V239.727V238.58L192.985 237.433V236.286V235.139V233.993V232.846V231.595V230.448V229.301V228.154V227.007V225.756V224.609V223.462V222.315V221.064V219.917L193.089 218.771V217.624V216.373V215.226V214.079V212.932V211.681V210.534V209.387V208.24V207.093V205.947V204.8V203.549V202.402V201.255L193.194 200.108V198.961V197.919V196.772V195.625V194.478V193.331V192.288V191.142V189.995V188.952V187.805V186.763V185.72L193.089 184.573V183.531V182.488V181.445V180.403V179.36V178.318V177.275V176.337V175.294L192.985 174.251V173.313V172.375V171.332V170.394V169.456L192.881 168.517V167.579V166.64V165.702L192.777 164.868V163.93V163.096V162.157L192.672 161.323V160.489V159.655L192.568 158.821V157.987V157.257L192.464 156.423V155.589L192.36 154.859V154.129V153.399L192.255 152.67V151.94L192.151 151.21V150.48L192.047 149.855V149.125L191.943 148.499L191.838 147.874V147.248L191.734 146.623V145.997L191.63 145.476L191.526 144.85V144.329L191.421 143.808L191.317 143.286V142.765L191.213 142.244L191.109 141.827L191.004 141.305V140.888L190.9 140.471L190.796 139.95L190.691 139.637L190.587 139.22L190.483 138.803L190.379 138.49V138.073L190.274 137.76L190.17 137.448L190.066 137.135L189.962 136.926L189.857 136.614L189.753 136.405L189.649 136.092L189.545 135.884L189.336 135.675L189.232 135.467L189.128 135.362L189.023 135.154L188.919 135.05L188.815 134.841L188.711 134.737L188.502 134.633H188.398L188.294 134.528H188.189L187.981 134.424H187.876H187.772H187.564H187.459L187.355 134.528L187.147 134.633H187.042L186.834 134.737L186.73 134.841L186.521 135.05L186.417 135.154L186.208 135.258L186.104 135.467L185.896 135.675L185.791 135.884" stroke="#747D62" stroke-width="5" stroke-miterlimit="10" stroke-linecap="round" stroke-linejoin="round"/>
<path d="M138.249 296.236L137.936 296.549L137.727 296.862L137.519 297.07L137.206 297.279L136.998 297.487L136.789 297.592L136.476 297.696H136.268H136.059L135.851 297.592H135.642L135.434 297.383L135.225 297.279L135.017 297.07L134.808 296.757L134.704 296.445L134.495 296.132L134.287 295.819L134.078 295.402L133.974 294.881L133.765 294.464L133.661 293.942L133.453 293.317L133.348 292.691L133.244 292.066L133.036 291.44L132.931 290.71L132.827 289.876L132.723 289.146L132.514 288.312L132.41 287.374L132.306 286.54L132.202 285.497L132.097 284.559L131.993 283.516V282.474L131.889 281.431L131.785 280.284L131.68 279.138L131.576 277.886V276.74L131.472 275.488V274.237L131.368 272.882L131.263 271.527V270.171V268.816L131.159 267.356V265.896L131.055 264.437V262.977V261.413L130.95 259.849V258.285V256.722V255.053V253.49L130.846 251.821V250.153V248.381V246.713V244.94V243.272V241.5V239.727V237.851V236.078V234.306V232.429V230.657V228.78V226.903V225.131V223.254L130.95 221.377V219.501V217.624V215.747V213.871V211.994V210.117V208.241V206.364L131.055 204.487V202.611V200.734V198.857V196.981V195.104V193.331V191.455V189.682V187.806V186.033V184.261V182.488V180.716V179.048V177.275V175.607V173.835V172.167V170.499L130.95 168.935V167.266V165.703V164.139L130.846 162.575V161.115V159.551L130.742 158.092V156.632V155.277L130.638 153.817V152.462L130.533 151.21V149.855L130.429 148.604L130.325 147.353V146.102L130.221 144.955L130.116 143.808L130.012 142.661L129.908 141.618V140.576L129.804 139.533L129.699 138.595L129.595 137.657" stroke="#747D62" stroke-width="5" stroke-miterlimit="10" stroke-linecap="round" stroke-linejoin="round"/>
<path d="M512.021 223.879L512.438 223.358L512.751 222.837L513.168 222.315L513.585 221.794L513.898 221.377L514.315 220.96L514.628 220.647L515.045 220.335L515.357 220.022L515.774 219.813L516.087 219.605L516.4 219.5L516.817 219.396L517.13 219.292H517.443H517.755L498.363 173.209" stroke="#747D62" stroke-width="5" stroke-miterlimit="10" stroke-linecap="round" stroke-linejoin="round"/>
<path d="M482.724 291.336L482.411 291.857L482.099 292.274L481.786 292.795L481.473 293.213L481.16 293.63L480.847 293.942L480.535 294.359L480.222 294.672L479.909 294.985L479.596 295.298L479.388 295.506L479.075 295.715L478.762 295.923L478.554 296.132L478.241 296.236L477.928 296.34L477.72 296.445L477.407 296.549H477.198H476.886H476.677H476.364L476.156 296.445L475.947 296.34L475.634 296.236L475.426 296.132L475.217 295.923L474.905 295.715L474.696 295.506L474.488 295.298L474.279 294.985L474.071 294.672L473.862 294.359L473.654 294.047L473.445 293.63L473.236 293.213L473.028 292.795L472.819 292.378L472.611 291.857L472.402 291.44L472.194 290.815L471.985 290.293L471.777 289.772L471.673 289.146L471.464 288.521L471.256 287.895L471.151 287.165L470.943 286.54L470.734 285.81L470.63 285.08L470.421 284.35L470.317 283.621L470.109 282.786L470.004 282.057L469.796 281.223L469.692 280.389L469.483 279.554L469.379 278.616L469.17 277.782L469.066 276.844L468.858 275.905L468.753 275.071L468.649 274.133L468.441 273.09L468.336 272.152L468.232 271.214L468.128 270.171L467.919 269.233L467.815 268.19L467.711 267.147L467.502 266.105L467.398 265.062L467.294 264.02L467.189 262.977L467.085 261.934L466.877 260.892L466.772 259.849L466.668 258.807L466.564 257.66L466.46 256.617L466.251 255.575L466.147 254.532L466.043 253.385L465.938 252.343L465.834 251.3L465.73 250.153L465.521 249.11L465.417 248.068L465.313 247.025L465.208 245.983L465.104 244.836L464.896 243.793L464.791 242.751L464.687 241.812L464.583 240.77L464.374 239.727L464.27 238.684L464.166 237.746L463.957 236.704L463.853 235.765L463.749 234.827L463.645 233.889L463.436 232.95L463.332 232.012L463.123 231.074L463.019 230.135L462.915 229.301L462.706 228.467L462.602 227.633L462.393 226.799L462.289 225.965L462.081 225.131L461.976 224.401L461.768 223.567L461.664 222.837L461.455 222.107L461.247 221.482L461.142 220.752L460.934 220.126L460.725 219.501L460.621 218.875L460.412 218.25L460.204 217.728L459.995 217.103L459.787 216.581L459.578 216.164L459.37 215.643L459.266 215.226" stroke="#747D62" stroke-width="5" stroke-miterlimit="10" stroke-linecap="round" stroke-linejoin="round"/>
<path d="M420.794 283.412L420.376 283.933L420.064 284.455L419.647 284.976L419.334 285.497L419.021 285.914L418.708 286.331L418.291 286.748L417.978 287.061L417.666 287.374L417.353 287.687L417.04 287.999L416.727 288.208L416.415 288.416L416.102 288.521L415.789 288.729H415.476L415.163 288.833H414.851H414.538H414.329L414.017 288.729L413.704 288.625L413.495 288.416L413.183 288.312L412.974 288.104L412.661 287.791L412.453 287.582L412.14 287.27L411.931 286.853L411.723 286.54L411.41 286.123L411.202 285.706L410.993 285.184L410.785 284.767L410.576 284.246L410.368 283.62L410.159 283.099L409.846 282.474L409.742 281.744L409.533 281.118L409.325 280.388L409.116 279.659L408.908 278.929L408.699 278.095L408.491 277.261L408.282 276.427L408.178 275.592L407.97 274.758L407.761 273.82L407.657 272.882L407.448 271.943L407.24 271.005L407.135 269.962L406.927 268.92L406.823 267.981L406.614 266.939L406.51 265.792L406.301 264.749L406.197 263.707L405.989 262.56L405.884 261.413L405.676 260.266L405.572 259.119L405.467 257.973" stroke="#747D62" stroke-width="5" stroke-miterlimit="10" stroke-linecap="round" stroke-linejoin="round"/>
<path d="M355.11 280.076L354.901 280.284L354.588 280.493L354.38 280.597L354.067 280.701L353.859 280.91H353.546L353.337 281.014L353.129 281.118H352.92H352.607H352.399L352.19 281.014H351.982L351.773 280.91L351.461 280.805L351.252 280.597L351.044 280.493L350.835 280.284L350.627 280.076L350.418 279.867L350.21 279.659L350.001 279.346L349.792 279.137L349.584 278.824L349.48 278.407L349.271 278.095L349.063 277.782L348.854 277.365L348.646 276.948L348.541 276.531L348.333 276.114L348.124 275.592L348.02 275.071L347.812 274.654L347.603 274.133L347.499 273.507L347.29 272.986L347.186 272.36L346.977 271.839L346.873 271.213L346.665 270.588L346.56 269.858L346.352 269.233L346.248 268.503L346.039 267.773L345.935 267.147L345.831 266.417L345.622 265.583L345.518 264.854L345.414 264.124L345.205 263.29L345.101 262.456L344.997 261.622L344.788 260.892L344.684 259.953L344.579 259.119L344.475 258.285L344.267 257.451L344.162 256.513L344.058 255.679L343.954 254.74L343.85 253.802L343.745 252.864L343.537 252.03L343.433 251.091L343.328 250.153L343.224 249.215L343.12 248.276L343.016 247.234L342.911 246.295L342.807 245.357L342.703 244.419L342.494 243.376L342.39 242.438L342.286 241.499L342.181 240.457L342.077 239.518L341.973 238.476L341.869 237.537L341.764 236.599L341.66 235.557L341.556 234.618L341.452 233.68L341.347 232.637L341.139 231.699L341.035 230.761L340.93 229.718L340.826 228.78L340.722 227.841L340.618 226.903L340.513 225.965L340.409 225.026L340.201 224.088L340.096 223.15L339.992 222.315L339.888 221.377L339.783 220.439L339.679 219.605L339.471 218.771L339.366 217.832L339.262 216.998L339.158 216.164L338.949 215.33L338.845 214.496L338.741 213.766L338.637 212.932L338.428 212.202L338.324 211.472L338.115 210.638L338.011 209.909L337.907 209.283L337.698 208.553L337.594 207.823L337.386 207.198L337.281 206.572L337.073 205.842L336.968 205.321L336.76 204.696L336.656 204.07L336.447 203.549L336.343 203.027L336.134 202.402L335.926 201.985L335.822 201.463L335.613 200.942L335.405 200.525L335.3 200.108L335.092 199.691" stroke="#747D62" stroke-width="5" stroke-miterlimit="10" stroke-linecap="round" stroke-linejoin="round"/>
<path d="M297.558 266.313L297.141 266.939L296.828 267.565L296.411 268.19L295.994 268.816L295.682 269.337L295.265 269.858L294.952 270.275L294.535 270.797L294.222 271.214L293.909 271.526L293.492 271.839L293.179 272.152L292.867 272.465L292.554 272.673L292.137 272.882L291.824 273.09L291.511 273.195L291.198 273.299H290.886H290.573H290.26H290.052L289.739 273.195L289.426 272.986L289.113 272.882L288.905 272.673L288.592 272.36L288.279 272.048L288.071 271.735L287.758 271.422L287.549 271.005L287.341 270.588L287.028 270.067L286.819 269.65L286.611 269.128L286.298 268.503L286.09 267.877L285.881 267.252L285.673 266.626L285.464 265.896L285.256 265.167L285.047 264.437L284.839 263.603L284.63 262.873L284.422 261.934L284.213 261.1L284.004 260.162L283.796 259.328L283.692 258.285L283.483 257.347L283.275 256.304L283.066 255.366L282.962 254.323L282.753 253.177L282.649 252.134L282.441 250.987L282.232 249.84L282.128 248.693L281.919 247.547L281.815 246.4L281.606 245.253L281.502 244.002L281.294 242.855L281.189 241.604" stroke="#747D62" stroke-width="5" stroke-miterlimit="10" stroke-linecap="round" stroke-linejoin="round"/>
<path d="M273.37 192.81L273.161 192.393L272.953 191.976" stroke="#747D62" stroke-width="5" stroke-miterlimit="10" stroke-linecap="round" stroke-linejoin="round"/>
<path d="M230.936 264.645L230.623 264.854L230.31 265.062L229.997 265.166L229.685 265.271L229.476 265.375L229.163 265.479L228.851 265.583H228.642H228.329L228.121 265.479H227.808L227.599 265.375L227.287 265.271L227.078 265.062L226.87 264.854L226.557 264.645" stroke="#747D62" stroke-width="5" stroke-miterlimit="10" stroke-linecap="round" stroke-linejoin="round"/>
<path d="M170.987 254.532L170.674 254.949L170.361 255.366L170.048 255.678L169.84 255.991L169.527 256.304L169.214 256.513L168.901 256.721L168.693 256.93L168.38 257.138L168.172 257.347L167.859 257.451L167.65 257.555L167.337 257.659L167.129 257.764H166.816H166.608H166.295H166.086H165.878L165.565 257.659L165.357 257.555L165.148 257.451L164.939 257.242L164.731 257.034L164.418 256.825L164.21 256.617L164.001 256.408L163.793 256.096L163.584 255.783L163.376 255.47L163.167 255.157L162.959 254.74L162.75 254.323L162.541 253.906L162.437 253.489L162.229 253.072L162.02 252.551L161.812 252.029L161.603 251.508L161.499 250.987L161.29 250.361L161.082 249.736L160.978 249.11L160.769 248.485L160.561 247.859L160.456 247.129L160.248 246.504L160.144 245.774L159.935 245.044L159.831 244.314L159.622 243.48L159.518 242.75L159.309 241.916L159.205 241.082L159.101 240.248L158.892 239.414L158.788 238.58L158.58 237.746L158.475 236.807L158.371 235.973L158.267 235.035L158.058 234.097L157.954 233.158L157.85 232.22L157.746 231.282L157.537 230.239L157.433 229.301L157.328 228.362L157.224 227.32L157.016 226.381L156.911 225.339L156.807 224.296L156.703 223.254L156.599 222.315L156.494 221.273L156.286 220.23L156.182 219.187L156.077 218.145L155.973 217.102L155.869 216.06L155.765 215.017L155.66 213.974L155.452 212.932L155.348 211.889L155.243 210.951L155.139 209.908L155.035 208.866L154.931 207.823L154.722 206.781L154.618 205.738L154.513 204.8L154.409 203.757L154.305 202.819L154.201 201.776L153.992 200.838L153.888 199.795L153.784 198.857L153.679 197.918L153.471 196.98L153.367 196.042L153.262 195.103L153.054 194.269L152.95 193.331L152.845 192.497L152.741 191.559L152.533 190.724L152.428 189.89L152.22 189.056L152.115 188.222L152.011 187.492L151.803 186.658L151.698 185.928L151.49 185.199L151.386 184.469L151.177 183.739L150.969 183.009L150.864 182.384L150.656 181.758L150.552 181.133L150.343 180.507L150.135 179.881L150.03 179.36L149.822 178.839L149.613 178.318L149.405 177.796L149.196 177.275L149.092 176.858L148.883 176.441" stroke="#747D62" stroke-width="5" stroke-miterlimit="10" stroke-linecap="round" stroke-linejoin="round"/>
<path d="M468.128 213.037L476.364 214.079" stroke="#747D62" stroke-width="5" stroke-miterlimit="10" stroke-linecap="round" stroke-linejoin="round"/>
<path d="M492.733 216.164L517.755 219.292" stroke="#747D62" stroke-width="5" stroke-miterlimit="10" stroke-linecap="round" stroke-linejoin="round"/>
<path d="M468.128 213.037H467.919H467.71H467.606L467.398 213.141H467.189L466.981 213.245L466.772 213.35H466.564L466.355 213.558L466.147 213.662L465.938 213.767L465.625 213.975L465.417 214.079L465.208 214.288L465 214.496L464.791 214.705L464.583 214.913L464.374 215.226L464.061 215.435L463.853 215.748L463.644 216.06L463.436 216.373L463.123 216.686L462.915 216.999L462.706 217.311L462.393 217.728L462.185 218.041L461.976 218.458L461.663 218.875L461.455 219.292L461.142 219.709L460.934 220.126" stroke="#747D62" stroke-width="5" stroke-miterlimit="10" stroke-linecap="round" stroke-linejoin="round"/>
<path d="M423.4 286.749L423.296 286.331L423.087 285.914L422.879 285.497L422.775 284.976L422.566 284.559L422.358 284.038L422.253 283.516L422.045 282.995L421.941 282.474L421.732 281.848L421.628 281.327L421.419 280.701L421.315 280.076L421.106 279.45L421.002 278.825L420.794 278.095L420.689 277.469L420.585 276.74L420.377 276.114L420.272 275.384L420.168 274.654L419.96 273.82L419.855 273.09L419.751 272.361L419.647 271.527L419.438 270.797L419.334 269.963L419.23 269.129L419.125 268.295L418.917 267.46L418.813 266.626L418.708 265.792L418.604 264.854L418.5 264.02L418.396 263.081L418.291 262.247L418.083 261.309L417.979 260.371L417.874 259.432L417.77 258.598L417.666 257.66L417.562 256.722L417.457 255.783L417.353 254.845L417.249 253.907L417.145 252.968L417.04 252.03L416.936 250.987L416.832 250.049L416.623 249.111L416.519 248.172L416.415 247.234L416.31 246.296L416.206 245.357L416.102 244.315L415.998 243.376L415.893 242.438L415.789 241.5L415.685 240.561L415.581 239.623L415.476 238.685L415.372 237.746L415.268 236.808L415.164 235.87L414.955 235.036L414.851 234.097L414.747 233.159L414.642 232.325L414.538 231.386L414.434 230.552L414.33 229.718L414.121 228.78L414.017 227.946L413.912 227.112L413.808 226.278L413.704 225.548L413.495 224.714L413.391 223.88L413.287 223.15L413.183 222.316L412.974 221.586L412.87 220.856L412.766 220.126L412.557 219.397L412.453 218.667L412.349 218.041L412.14 217.311L412.036 216.686L411.827 216.06L411.723 215.435L411.619 214.809L411.41 214.184L411.306 213.662L411.097 213.037L410.889 212.515L410.785 211.994L410.576 211.473L410.472 211.056L410.263 210.534L410.055 210.117L409.951 209.7L409.742 209.283L409.534 208.866L409.325 208.553L409.221 208.136L409.012 207.824L408.804 207.511L408.595 207.198L408.387 206.99L408.178 206.677L408.074 206.468L407.865 206.26L407.657 206.051L407.448 205.947L407.24 205.738L407.031 205.634L406.719 205.53L406.51 205.426H406.302L406.093 205.321H405.884H405.676H405.467H405.155L404.946 205.426L404.738 205.53L404.425 205.634L404.216 205.738" stroke="#747D62" stroke-width="5" stroke-miterlimit="10" stroke-linecap="round" stroke-linejoin="round"/>
<path d="M299.331 271.214L299.122 270.693L298.913 270.276L298.705 269.754L298.496 269.233L298.288 268.712L298.079 268.086L297.975 267.565L297.767 266.939L297.558 266.209L297.35 265.584L297.245 264.958L297.037 264.228L296.828 263.499L296.724 262.769L296.515 261.935L296.411 261.205L296.203 260.371L296.098 259.537L295.89 258.703L295.786 257.869L295.577 256.93L295.473 256.096L295.264 255.158L295.16 254.219L295.056 253.281L294.847 252.343L294.743 251.404L294.639 250.466L294.43 249.424L294.326 248.485L294.222 247.443L294.013 246.4L293.909 245.357L293.805 244.315L293.7 243.272L293.492 242.23L293.388 241.187L293.283 240.144L293.179 239.102L293.075 238.059L292.866 236.912L292.762 235.87L292.658 234.827L292.554 233.68L292.449 232.638L292.241 231.491L292.137 230.448L292.032 229.406L291.928 228.259L291.824 227.216L291.615 226.174L291.511 225.027L291.407 223.984L291.302 222.941L291.198 221.899L290.99 220.856L290.885 219.814L290.781 218.771L290.677 217.728L290.468 216.79L290.364 215.748L290.26 214.705L290.051 213.767L289.947 212.828L289.843 211.89L289.634 210.847L289.53 210.013L289.426 209.075L289.217 208.137L289.113 207.302L288.905 206.364L288.8 205.53L288.592 204.696L288.487 203.966L288.279 203.132L288.175 202.402L287.966 201.568L287.758 200.838L287.653 200.108L287.445 199.483L287.236 198.753L287.132 198.128L286.924 197.502L286.715 196.876L286.507 196.251L286.402 195.73L286.194 195.208L285.985 194.687L285.777 194.166L285.568 193.749L285.36 193.227L285.151 192.81L284.943 192.498L284.734 192.08L284.526 191.768L284.317 191.455L284.109 191.142L283.9 190.934L283.587 190.725L283.379 190.517L283.17 190.308L282.857 190.204L282.649 189.995L282.44 189.891H282.128L281.919 189.787H281.606H281.398L281.085 189.891H280.876L280.564 189.995L280.355 190.1L280.042 190.308L279.73 190.412L279.417 190.621L279.208 190.829L278.896 191.142L278.583 191.455L278.27 191.663L277.957 192.08L277.644 192.393L277.332 192.81L277.019 193.227L276.706 193.644L276.393 194.061L276.081 194.583L275.768 195L275.455 195.625" stroke="#747D62" stroke-width="5" stroke-miterlimit="10" stroke-linecap="round" stroke-linejoin="round"/>
<path d="M237.192 263.394L236.983 262.873L236.775 262.351L236.566 261.83L236.358 261.205L236.149 260.475L235.836 259.849L235.628 259.119L235.523 258.39" stroke="#747D62" stroke-width="5" stroke-miterlimit="10" stroke-linecap="round" stroke-linejoin="round"/>
<path d="M158.267 174.46L157.954 174.356L157.745 174.252H157.433H157.12L156.807 174.356L156.494 174.46L156.181 174.564L155.869 174.773L155.556 174.981L155.243 175.19L154.93 175.398L154.618 175.711L154.305 176.024L153.992 176.441L153.679 176.754L153.262 177.171" stroke="#747D62" stroke-width="5" stroke-miterlimit="10" stroke-linecap="round" stroke-linejoin="round"/>
<path d="M113.018 247.963L112.913 247.442L112.705 247.025L112.496 246.504L112.288 245.982L112.079 245.461L111.871 244.836L111.662 244.314L111.558 243.689L111.35 243.063L111.141 242.333L111.037 241.708L110.828 240.978L110.62 240.248L110.515 239.518L110.307 238.684L110.203 237.954L109.994 237.12L109.89 236.286L109.681 235.452L109.577 234.618L109.369 233.784L109.264 232.95L109.056 232.012L108.952 231.073L108.847 230.135L108.639 229.197L108.534 228.258L108.43 227.32L108.222 226.277L108.117 225.339L108.013 224.296L107.909 223.358L107.7 222.315L107.596 221.273L107.492 220.23L107.388 219.188L107.179 218.145L107.075 217.102L106.971 216.06L106.866 214.913L106.762 213.87L106.554 212.828L106.449 211.785L106.345 210.638L106.241 209.596L106.137 208.449L105.928 207.406L105.824 206.364L105.719 205.321L105.615 204.174L105.511 203.132L105.302 202.089L105.198 201.046L105.094 199.899L104.99 198.857L104.885 197.814L104.677 196.772L104.573 195.833L104.468 194.791L104.364 193.748L104.156 192.81L104.051 191.767L103.947 190.829L103.739 189.786" stroke="#747D62" stroke-width="5" stroke-miterlimit="10" stroke-linecap="round" stroke-linejoin="round"/>
<path d="M498.363 173.209L468.128 213.036" stroke="#747D62" stroke-width="5" stroke-miterlimit="10" stroke-linecap="round" stroke-linejoin="round"/>
<path d="M139.708 156.215L142.002 161.324L144.296 166.328L146.59 171.437L147.736 173.939L148.883 176.441" stroke="#747D62" stroke-width="5" stroke-miterlimit="10" stroke-linecap="round" stroke-linejoin="round"/>
<path d="M437.996 167.37L443.209 179.36L445.816 185.407L448.422 191.35L451.133 197.397L453.739 203.34L455.095 206.259L456.45 209.283L457.806 212.202L459.265 215.226" stroke="#747D62" stroke-width="5" stroke-miterlimit="10" stroke-linecap="round" stroke-linejoin="round"/>
<path d="M375.962 159.655L380.862 171.019L383.364 176.649L385.866 182.384L388.369 188.014L390.871 193.644L393.373 199.274L394.728 202.089L395.98 204.904" stroke="#747D62" stroke-width="5" stroke-miterlimit="10" stroke-linecap="round" stroke-linejoin="round"/>
<path d="M313.927 151.94L319.036 163.93L321.642 169.873L324.353 175.815L326.959 181.862L329.67 187.805L331.025 190.829L332.381 193.748L333.736 196.772L335.092 199.691" stroke="#747D62" stroke-width="5" stroke-miterlimit="10" stroke-linecap="round" stroke-linejoin="round"/>
<path d="M251.788 144.121L257.001 156.111L259.608 162.158L262.214 168.101L264.925 174.043L267.531 180.09L268.887 183.01L270.242 186.033L271.597 188.953L272.953 191.976" stroke="#747D62" stroke-width="5" stroke-miterlimit="10" stroke-linecap="round" stroke-linejoin="round"/>
<path d="M189.753 136.405L194.445 147.248L196.843 152.67L199.241 158.091L201.535 163.513L204.037 168.934L206.435 174.356L208.833 179.777" stroke="#747D62" stroke-width="5" stroke-miterlimit="10" stroke-linecap="round" stroke-linejoin="round"/>
<path d="M480.952 293.942L478.867 296.444L476.781 298.947L474.8 301.553L472.715 304.055L468.649 309.164L464.583 314.377L460.621 319.486L456.555 324.699L448.631 335.021" stroke="#747D62" stroke-width="5" stroke-miterlimit="10" stroke-linecap="round" stroke-linejoin="round"/>
<path d="M418.813 286.123L416.727 288.729L414.746 291.231L412.661 293.734L410.68 296.34L406.614 301.449L402.548 306.558L398.586 311.771L394.52 316.879L386.492 327.201" stroke="#747D62" stroke-width="5" stroke-miterlimit="10" stroke-linecap="round" stroke-linejoin="round"/>
<path d="M355.318 280.18L353.337 282.578L351.356 285.08L347.499 289.876L343.641 294.776L339.784 299.781L335.926 304.681L332.068 309.581L324.457 319.486" stroke="#747D62" stroke-width="5" stroke-miterlimit="10" stroke-linecap="round" stroke-linejoin="round"/>
<path d="M294.743 270.588L292.658 273.194L290.573 275.697L288.487 278.303L286.506 280.805L282.44 285.914L278.374 291.023L274.412 296.236L270.346 301.345L262.422 311.771" stroke="#747D62" stroke-width="5" stroke-miterlimit="10" stroke-linecap="round" stroke-linejoin="round"/>
<path d="M231.249 264.541L229.268 267.043L227.287 269.441L223.429 274.341L219.572 279.242L215.61 284.142L211.856 289.146L207.999 294.046L200.283 303.951" stroke="#747D62" stroke-width="5" stroke-miterlimit="10" stroke-linecap="round" stroke-linejoin="round"/>
<path d="M170.569 255.157L168.484 257.66L166.399 260.162L164.418 262.768L162.333 265.271L158.267 270.379L154.305 275.592L150.239 280.701L146.277 285.914L138.249 296.236" stroke="#747D62" stroke-width="5" stroke-miterlimit="10" stroke-linecap="round" stroke-linejoin="round"/>
<path d="M463.853 215.747L465.834 213.245L467.919 210.743L470.004 208.136L471.985 205.634L476.051 200.421L480.118 195.312L484.079 190.203L488.146 184.99L496.069 174.669" stroke="#747D62" stroke-width="5" stroke-miterlimit="10" stroke-linecap="round" stroke-linejoin="round"/>
<path d="M403.799 205.425L405.78 203.027L407.657 200.734L411.514 195.938L415.268 191.142L419.021 186.241L422.774 181.445L426.528 176.65L434.034 166.953" stroke="#747D62" stroke-width="5" stroke-miterlimit="10" stroke-linecap="round" stroke-linejoin="round"/>
<path d="M343.224 195.938L346.873 191.351L350.418 186.763L354.067 182.176L357.612 177.588L361.261 173.001L364.806 168.413L372 159.134" stroke="#747D62" stroke-width="5" stroke-miterlimit="10" stroke-linecap="round" stroke-linejoin="round"/>
<path d="M277.645 192.497L279.625 189.995L281.711 187.388L283.796 184.886L285.777 182.28L289.843 177.171L293.909 172.062L297.871 166.953L301.937 161.74L309.861 151.419" stroke="#747D62" stroke-width="5" stroke-miterlimit="10" stroke-linecap="round" stroke-linejoin="round"/>
<path d="M219.363 180.09L222.908 175.607L226.557 171.02L230.102 166.537L233.647 161.949L237.191 157.362L240.736 152.774L247.826 143.599" stroke="#747D62" stroke-width="5" stroke-miterlimit="10" stroke-linecap="round" stroke-linejoin="round"/>
<path d="M153.471 176.962L155.556 174.46L157.537 171.958L159.622 169.351L161.603 166.849L165.669 161.74L169.735 156.527L173.802 151.419L177.763 146.206L185.791 135.884" stroke="#747D62" stroke-width="5" stroke-miterlimit="10" stroke-linecap="round" stroke-linejoin="round"/>
<path d="M444.669 334.499L439.456 322.509L436.85 316.566L434.139 310.519L431.532 304.576L428.822 298.634L427.571 295.61L426.215 292.691L424.756 289.667L423.4 286.748" stroke="#747D62" stroke-width="5" stroke-miterlimit="10" stroke-linecap="round" stroke-linejoin="round"/>
<path d="M382.53 326.784L377.421 314.794L374.815 308.851L372.208 302.909L369.498 296.966L366.891 291.023L365.536 287.999L364.18 285.08L362.825 282.161L361.469 279.137" stroke="#747D62" stroke-width="5" stroke-miterlimit="10" stroke-linecap="round" stroke-linejoin="round"/>
<path d="M320.495 318.964L315.282 306.974L312.676 301.032L310.069 294.985L307.359 289.042L304.752 283.099L303.397 280.075L302.041 277.156L300.686 274.133L299.331 271.213" stroke="#747D62" stroke-width="5" stroke-miterlimit="10" stroke-linecap="round" stroke-linejoin="round"/>
<path d="M258.356 311.25L253.248 299.26L250.641 293.213L247.93 287.27L245.324 281.327L242.613 275.28L241.258 272.361L239.902 269.337L238.547 266.418L237.192 263.498" stroke="#747D62" stroke-width="5" stroke-miterlimit="10" stroke-linecap="round" stroke-linejoin="round"/>
<path d="M196.322 303.534L191.317 291.857L188.815 286.123L186.208 280.388L183.706 274.55L181.1 268.816L178.493 263.081L177.242 260.162L175.887 257.347" stroke="#747D62" stroke-width="5" stroke-miterlimit="10" stroke-linecap="round" stroke-linejoin="round"/>
<path d="M134.287 295.715L129.074 283.725L126.467 277.782L123.861 271.735L121.15 265.792L118.544 259.849L117.188 256.826L115.833 253.907L114.477 250.883L113.018 247.964" stroke="#747D62" stroke-width="5" stroke-miterlimit="10" stroke-linecap="round" stroke-linejoin="round"/>
<path d="M507.767 246.405C512.234 254.548 522.127 258.356 530.951 255.33C539.776 252.303 544.832 243.368 542.8 234.39C540.768 225.411 532.27 219.137 522.885 219.686C513.5 220.235 506.099 227.439 505.541 236.569" stroke="#747D62" stroke-width="5" stroke-miterlimit="10" stroke-linecap="round" stroke-linejoin="round"/>
<path d="M107.12 172.366C99.3297 178.743 98.3407 190.111 104.895 197.934" stroke="#747D62" stroke-width="5" stroke-miterlimit="10" stroke-linecap="round" stroke-linejoin="round"/>
<path d="M533.812 254.01L533.603 254.427L533.395 254.74L533.186 255.157L532.978 255.574L532.769 255.887L532.56 256.304L532.248 256.825L532.039 257.242L531.831 257.66L531.622 258.181L531.309 258.598L531.101 259.119L530.892 259.64L530.684 260.058L530.371 260.579L530.162 261.1L529.954 261.621L529.641 262.143L529.433 262.664L529.224 263.081L528.911 263.602L528.703 264.124L528.286 265.271L527.764 266.313L527.347 267.356L526.826 268.398L526.409 269.441L525.888 270.484L525.471 271.526L524.949 272.464L524.532 273.507L524.115 274.445L523.594 275.488L523.177 276.426L522.76 277.365L522.343 278.303L521.926 279.241L521.405 280.075L520.988 281.014L520.571 281.848L520.154 282.682L519.736 283.516L519.215 284.35L518.798 285.08L518.381 285.914L517.86 286.644L517.443 287.374L516.921 288.208L516.4 288.938L515.879 289.667L515.253 290.397L514.732 291.127L514.106 291.753L513.481 292.482L512.751 293.108L512.021 293.838L511.291 294.463L510.457 295.089L509.623 295.61L508.789 296.236L507.851 296.757L507.33 296.966L506.912 297.174L506.391 297.383L505.87 297.591L505.453 297.8L504.932 298.008L504.41 298.112L503.889 298.321L503.368 298.425L502.846 298.634L502.325 298.738L501.804 298.842H501.178L500.657 298.947L500.136 299.051H499.614H498.989H498.467H497.946H497.425H496.799L496.278 298.947H495.757L495.235 298.842L494.714 298.738L494.088 298.634L493.567 298.529L493.046 298.321L492.525 298.217L492.003 298.008L491.482 297.8L490.961 297.591L490.439 297.383L490.022 297.174L489.501 296.966L488.98 296.653L488.563 296.444L488.041 296.131L487.624 295.819L487.207 295.506L486.79 295.193L486.269 294.88L485.852 294.568L485.435 294.255L485.122 293.942L484.705 293.525L484.288 293.212L483.975 292.795L483.245 292.065L482.62 291.231L481.994 290.397L481.473 289.667L480.952 288.833L480.43 287.999L480.013 287.165L479.596 286.331L479.284 285.497L478.867 284.663L478.554 283.829L478.241 282.995L477.928 282.161L477.72 281.222L477.407 280.388L477.198 279.554L476.99 278.616L476.781 277.782L476.469 276.843L476.26 275.905L476.052 274.967L475.947 274.028L475.739 272.986L475.53 272.047L475.322 271.005L475.113 269.962L474.905 268.92L474.8 267.877L474.592 266.834L474.383 265.688L474.175 264.645L473.966 263.498L473.862 262.351L473.654 261.204L473.445 260.058L473.236 259.015L473.028 257.868L472.924 257.242L472.819 256.721L472.715 256.096L472.611 255.574L472.507 254.949L472.402 254.427L472.298 253.906L472.194 253.281L472.09 252.759L471.985 252.238L471.881 251.717L471.777 251.195L471.673 250.674L471.568 250.153L471.464 249.632L471.36 249.214L471.256 248.693L471.151 248.276L471.047 247.755L470.943 247.338L470.734 246.921L470.63 246.504L470.526 246.087L470.421 245.774L470.317 245.357L470.213 245.044L470.109 244.836L470.004 244.523V244.314L469.9 244.106L469.796 243.897V243.793V243.689" stroke="#747D62" stroke-width="5" stroke-miterlimit="10" stroke-linecap="round" stroke-linejoin="round"/>
<path d="M476.156 275.071L475.843 275.696L475.426 276.322L474.8 277.573L474.175 278.824L473.445 279.971L472.715 281.118L471.985 282.265L471.255 283.307L470.838 283.933L470.421 284.454" stroke="#747D62" stroke-width="5" stroke-miterlimit="10" stroke-linecap="round" stroke-linejoin="round"/>
<path d="M421.94 282.474L421.419 282.891L420.898 283.308L420.376 283.725L419.855 284.038L419.23 284.455L418.708 284.768L418.083 285.185L417.457 285.498L416.832 285.81L416.206 286.019L415.58 286.332L414.955 286.54L414.225 286.749L413.6 286.957L412.87 287.166L412.244 287.27" stroke="#747D62" stroke-width="5" stroke-miterlimit="10" stroke-linecap="round" stroke-linejoin="round"/>
<path d="M362.721 281.953L362.199 281.848H361.574L361.053 281.744H360.531L359.906 281.64L359.384 281.536L358.863 281.431L358.342 281.223L357.716 281.119L357.195 280.91L356.674 280.702L356.152 280.493L355.631 280.284L355.11 280.076L354.693 279.867L354.171 279.659L353.65 279.346L353.233 279.033L352.712 278.721L352.295 278.408L351.878 278.095L351.356 277.782L350.939 277.469L350.522 277.157L350.105 276.74L349.792 276.427L349.375 276.01L348.958 275.697L348.646 275.28L348.333 274.863L347.603 274.029" stroke="#747D62" stroke-width="5" stroke-miterlimit="10" stroke-linecap="round" stroke-linejoin="round"/>
<path d="M292.032 229.509L291.928 228.779L291.719 227.945L291.511 227.216L291.407 226.381L291.198 225.652L291.094 225.026L290.885 224.296L290.781 223.983L290.677 223.671L290.573 223.358V223.149L290.468 222.837L290.364 222.524L290.26 222.315V222.107L290.156 221.898L290.051 221.69V221.481L289.947 221.377V221.168L289.843 221.064V220.96L289.739 220.856" stroke="#747D62" stroke-width="5" stroke-miterlimit="10" stroke-linecap="round" stroke-linejoin="round"/>
<path d="M295.16 254.115L294.639 254.949L294.222 255.888L293.7 256.722L293.283 257.452L292.762 258.286L292.241 259.12L291.719 259.85L291.198 260.684L290.573 261.413L289.947 262.143L289.321 262.873L288.696 263.603L287.966 264.333L287.236 265.063L286.402 265.688L285.985 266.105L285.568 266.418" stroke="#747D62" stroke-width="5" stroke-miterlimit="10" stroke-linecap="round" stroke-linejoin="round"/>
<path d="M236.983 262.872L236.357 263.081L235.732 263.394L235.106 263.602L234.481 263.811L233.751 264.019L233.125 264.228L232.5 264.332L231.77 264.541L231.144 264.645H230.415L229.789 264.749H229.059H228.434H227.704H227.078L226.349 264.645" stroke="#747D62" stroke-width="5" stroke-miterlimit="10" stroke-linecap="round" stroke-linejoin="round"/>
<path d="M175.991 257.556L175.052 257.139L174.114 256.722L173.176 256.2L172.342 255.575L171.508 254.949L170.673 254.324L169.944 253.698L169.214 252.968L168.484 252.238L167.858 251.509L167.233 250.675L166.712 249.945L166.19 249.111L165.669 248.277L165.252 247.547L164.835 246.713L164.418 245.879L164.105 245.044L163.792 244.21L163.48 243.481L163.167 242.646L162.854 241.812L162.645 240.978L162.437 240.144L162.124 239.31L161.916 238.476L161.707 237.538L161.499 236.704L161.29 235.765L161.082 234.827L160.977 233.993L160.769 232.95L160.56 232.012L160.352 231.074L160.143 230.031L160.039 228.988L159.83 228.05L159.622 227.007L159.413 225.965L159.309 224.818L159.101 223.775L158.892 222.733L158.684 221.586L158.579 220.543L158.371 219.396L158.162 218.354L157.954 217.207L157.745 216.06L157.537 215.018L157.432 214.496L157.328 213.975L157.224 213.349L157.12 212.828L157.015 212.307L156.911 211.785L156.807 211.264L156.703 210.847L156.598 210.326L156.494 209.805L156.39 209.388L156.286 208.866L156.181 208.449L156.077 207.928L155.973 207.511L155.869 207.094L155.764 206.677L155.66 206.364L155.556 205.947L155.451 205.634L155.347 205.321L155.243 205.009L155.139 204.696L155.034 204.487V204.279L154.93 204.07L154.826 203.862V203.757" stroke="#747D62" stroke-width="5" stroke-miterlimit="10" stroke-linecap="round" stroke-linejoin="round"/>
<path d="M161.186 235.035L160.56 236.078L160.039 237.225L159.414 238.267L158.892 239.31" stroke="#747D62" stroke-width="5" stroke-miterlimit="10" stroke-linecap="round" stroke-linejoin="round"/>
<path d="M107.075 172.375L107.596 171.958L108.222 171.541L108.743 171.124L109.369 170.707L109.994 170.394L110.62 169.977L111.245 169.664L111.871 169.247" stroke="#747D62" stroke-width="5" stroke-miterlimit="10" stroke-linecap="round" stroke-linejoin="round"/>
<path d="M150.135 179.882L150.656 179.361L151.281 178.839L151.803 178.318L152.428 177.797L153.054 177.38L153.679 176.963L154.305 176.441L154.93 176.024L155.66 175.711L156.39 175.294L157.12 174.982L157.85 174.565L158.58 174.252L159.309 174.043L160.143 173.73L160.873 173.522" stroke="#747D62" stroke-width="5" stroke-miterlimit="10" stroke-linecap="round" stroke-linejoin="round"/>
<path d="M208.416 178.735L209.458 178.631L210.501 178.526H211.544H212.586L213.733 178.631L214.776 178.735L215.818 178.943L216.757 179.256L217.799 179.569L218.842 179.882L219.78 180.299L220.718 180.716L221.657 181.237L222.595 181.758L223.429 182.28L224.263 182.905" stroke="#747D62" stroke-width="5" stroke-miterlimit="10" stroke-linecap="round" stroke-linejoin="round"/>
<path d="M273.266 192.393L273.787 193.123L274.204 193.748L274.725 194.374L275.142 195.104L275.559 195.729L275.976 196.459L276.393 197.189L276.81 197.814L277.123 198.544L277.436 199.274L277.749 200.004L278.062 200.734L278.374 201.464L278.687 202.193L279 203.027L279.208 203.757L279.521 204.487L279.73 205.321L279.938 206.155L280.251 206.885L280.46 207.719L280.668 208.553L280.877 209.387L281.085 210.221L281.294 211.056L281.502 211.89L281.711 212.828L281.919 213.662L282.128 214.6L282.336 215.434L282.441 216.373L282.649 217.311L282.858 218.249L283.066 219.188L283.17 220.126L283.379 221.064L283.483 222.003L283.692 222.941L283.9 223.88L284.004 224.818L284.213 225.756L284.317 226.695L284.526 227.633L284.63 228.571L284.838 229.51L284.943 230.448L285.151 231.386L285.256 232.325L285.464 233.159L285.568 233.993L285.777 234.931L285.881 235.661L286.09 236.495L286.194 237.225L286.402 237.955V238.372L286.507 238.684L286.611 238.997V239.31L286.715 239.623L286.819 239.936V240.248L286.924 240.457L287.028 240.77V240.978L287.132 241.187V241.395L287.236 241.499V241.604V241.708L287.341 241.812V241.917" stroke="#747D62" stroke-width="5" stroke-miterlimit="10" stroke-linecap="round" stroke-linejoin="round"/>
<path d="M279.417 204.174L280.147 203.027L280.981 201.881L281.711 200.838L282.649 199.795L283.483 198.753L284.421 197.71L284.943 197.189L285.36 196.772L285.881 196.251L286.402 195.834" stroke="#747D62" stroke-width="5" stroke-miterlimit="10" stroke-linecap="round" stroke-linejoin="round"/>
<path d="M334.779 199.065L335.405 198.648L336.03 198.336L336.656 198.023L337.281 197.71L337.907 197.397L338.637 197.189L339.262 196.876L339.992 196.667L340.722 196.459L341.347 196.25L342.077 196.146L342.807 195.938L343.537 195.833L344.267 195.729H345.101H345.831" stroke="#747D62" stroke-width="5" stroke-miterlimit="10" stroke-linecap="round" stroke-linejoin="round"/>
<path d="M394.416 201.568L395.146 201.777L395.875 201.881L396.605 202.089L397.335 202.194L397.961 202.506L398.69 202.715L399.316 202.923L400.046 203.236L400.671 203.549L401.297 203.862L401.922 204.175L402.548 204.592L403.174 205.009L403.695 205.426L404.32 205.843L404.842 206.26L405.363 206.677L405.884 207.094L406.406 207.615L406.927 208.136L407.344 208.554L407.761 209.075L408.282 209.596L408.699 210.117L409.116 210.639L409.429 211.264L409.846 211.786L410.159 212.307L410.576 212.828L410.889 213.454L411.514 214.601" stroke="#747D62" stroke-width="5" stroke-miterlimit="10" stroke-linecap="round" stroke-linejoin="round"/>
<path d="M461.768 223.671L462.289 222.941L462.915 222.211L463.436 221.586L464.062 220.96L464.687 220.335L465.313 219.709L465.938 219.083L466.564 218.562L467.294 217.937L468.023 217.415L468.753 216.894L469.483 216.373L470.317 215.851L471.151 215.434L471.985 215.017L472.819 214.6" stroke="#747D62" stroke-width="5" stroke-miterlimit="10" stroke-linecap="round" stroke-linejoin="round"/>
<path d="M492.733 216.164L493.567 216.685L494.297 217.311L495.131 217.936L495.861 218.562L496.486 219.187L497.216 219.917L497.842 220.543L498.467 221.273L498.989 222.002L499.51 222.837L500.031 223.566L500.552 224.296L501.074 225.13L501.491 225.964L501.908 226.694L502.325 227.528L502.638 228.362L503.055 229.196L503.367 230.03L503.68 230.865L503.993 231.699L504.306 232.637L504.619 233.471L504.827 234.409L505.14 235.243L505.453 236.182L505.661 237.12L505.87 238.059L506.182 239.101L506.391 240.039L506.599 240.978L506.808 242.02L507.017 243.063L507.225 244.001L507.434 245.044L507.642 246.087L507.851 247.129L508.059 248.172L508.268 249.319L508.476 250.361L508.685 251.404L508.893 252.551L508.997 253.593L509.206 254.636L509.415 255.678L509.623 256.825L509.727 257.868L509.936 258.911L510.144 259.953L510.249 260.996L510.457 261.934L510.561 262.455L510.666 262.977L510.77 263.394V263.915L510.874 264.332L510.978 264.853L511.083 265.27L511.187 265.687V266.104L511.291 266.522L511.395 266.939L511.5 267.356L511.604 267.668V268.085L511.708 268.398L511.813 268.711L511.917 269.024V269.337L512.021 269.545L512.125 269.754V269.962L512.23 270.171V270.275V270.379L512.334 270.483" stroke="#747D62" stroke-width="5" stroke-miterlimit="10" stroke-linecap="round" stroke-linejoin="round"/>
<path d="M504.306 232.742L505.14 231.595L506.078 230.344L506.912 229.197L507.851 228.05L508.268 227.529L508.789 226.903L509.31 226.382L509.832 225.861L510.353 225.339L510.874 224.818L511.396 224.401L512.021 223.88" stroke="#747D62" stroke-width="5" stroke-miterlimit="10" stroke-linecap="round" stroke-linejoin="round"/>
<path d="M488.667 406.022H488.875L489.501 406.126L490.544 406.23L491.899 406.439L493.671 406.647L495.861 406.96L498.363 407.273L501.074 407.586L504.097 408.003L507.329 408.42L510.77 408.837L514.419 409.254L518.068 409.671L521.717 410.192L525.471 410.609L529.12 411.131L532.665 411.548L536.105 411.965L539.337 412.382L542.361 412.799L545.176 413.112L547.574 413.424L549.763 413.737L551.536 413.946L552.995 414.05L554.038 414.258H554.663L554.872 414.363L549.659 455.754L549.45 455.65H548.825L547.782 455.441L546.427 455.337L544.655 455.024L542.465 454.816L539.963 454.503L537.252 454.19L534.229 453.773L530.892 453.356L527.556 452.939L523.907 452.522L520.258 452.001L516.609 451.584L512.855 451.062L509.206 450.645L505.661 450.228L502.221 449.811L498.989 449.394L495.965 448.977L493.15 448.664L490.648 448.351L488.563 448.039L486.79 447.83L485.331 447.622L484.288 447.517L483.662 447.413H483.454L488.667 406.022Z" stroke="#747D62" stroke-width="5" stroke-miterlimit="10" stroke-linecap="round" stroke-linejoin="round"/>
<path d="M470.317 552.299H470.526H471.151H472.09H473.445H475.217H477.198H479.596H482.203H485.122H488.25H491.586H495.027H498.572H502.221H505.766H509.415H512.96H516.4H519.736H522.864H525.784H528.39H530.788H532.769H534.541H535.897H536.835H537.461H537.565L534.958 573.151H534.854H534.229H533.29H531.935H530.162H528.182H525.784H523.177H520.258H517.13H513.794H510.353H506.808H503.159H499.614H495.965H492.42H488.98H485.643H482.516H479.596H476.99H474.592H472.611H470.838H469.483H468.545H467.919H467.815L470.317 552.299Z" stroke="#747D62" stroke-width="5" stroke-miterlimit="10" stroke-linecap="round" stroke-linejoin="round"/>
<path d="M683.112 552.299H537.565" stroke="#747D62" stroke-width="5" stroke-miterlimit="10" stroke-linecap="round" stroke-linejoin="round"/>
<path d="M470.317 552.299H451.029" stroke="#747D62" stroke-width="5" stroke-miterlimit="10" stroke-linecap="round" stroke-linejoin="round"/>
<path d="M554.872 414.363L579.686 417.386L584.794 375.995L646.933 383.815L636.612 466.597L549.659 455.754" stroke="#747D62" stroke-width="5" stroke-miterlimit="10" stroke-linecap="round" stroke-linejoin="round"/>
<path d="M534.958 573.151H683.112V552.299" stroke="#747D62" stroke-width="5" stroke-miterlimit="10" stroke-linecap="round" stroke-linejoin="round"/>
<path d="M175.157 552.299H430.177V440.741L175.157 408.941V552.299Z" stroke="#747D62" stroke-width="5" stroke-miterlimit="10" stroke-linecap="round" stroke-linejoin="round"/>
<path d="M483.454 447.413L451.029 443.347V552.299" stroke="#747D62" stroke-width="5" stroke-miterlimit="10" stroke-linecap="round" stroke-linejoin="round"/>
<path d="M488.667 406.022L83.0952 355.352L103.113 195.417" stroke="#747D62" stroke-width="5" stroke-miterlimit="10" stroke-linecap="round" stroke-linejoin="round"/>
<path d="M105.824 173.522L114.165 107.004L151.385 111.696L161.707 28.9133L62.3474 16.5064L15.8474 389.028L154.305 406.335V552.299H15.8474V573.151H467.815" stroke="#747D62" stroke-width="5" stroke-miterlimit="10" stroke-linecap="round" stroke-linejoin="round"/>
<path d="M275.455 127.23L151.385 111.696" stroke="#747D62" stroke-width="5" stroke-miterlimit="10" stroke-linecap="round" stroke-linejoin="round"/>
<path d="M161.707 28.9128L285.881 44.4475L275.455 127.23L610.651 169.143" stroke="#747D62" stroke-width="5" stroke-miterlimit="10" stroke-linecap="round" stroke-linejoin="round"/>
<path d="M584.794 375.995L584.899 375.786V375.265L585.107 374.222L585.211 372.867L585.42 371.094L585.733 369.009L586.046 366.611L586.358 363.9L586.775 360.877L587.192 357.645L587.609 354.204L588.026 350.451L588.548 346.698L588.965 342.736L589.486 338.67L590.007 334.603L590.529 330.537L591.05 326.575L591.467 322.613L591.988 318.756L592.405 315.107L592.927 311.666L593.344 308.434L593.657 305.411L593.969 302.7L594.282 300.198L594.595 298.112L594.803 296.444L595.012 295.089L595.116 294.046V293.421L595.22 293.212" stroke="#747D62" stroke-width="5" stroke-miterlimit="10" stroke-linecap="round" stroke-linejoin="round"/>
<path d="M610.651 169.143L595.221 293.212L657.255 301.032V301.24L657.151 301.762L657.047 302.804L656.838 304.16L656.63 305.932L656.421 308.017L656.109 310.415L655.796 313.126L655.379 316.15L654.962 319.382L654.545 322.927L654.023 326.576L653.606 330.433L653.085 334.291L652.564 338.357L652.042 342.423L651.625 346.489L651.104 350.451L650.583 354.413L650.061 358.271L649.644 361.92L649.227 365.36L648.81 368.697L648.393 371.616L648.081 374.431L647.768 376.829L647.559 378.914L647.351 380.687L647.142 382.042L647.038 382.98L646.934 383.606V383.814" stroke="#747D62" stroke-width="5" stroke-miterlimit="10" stroke-linecap="round" stroke-linejoin="round"/>
<path d="M285.881 44.4477L683.112 94.0755L657.255 301.032" stroke="#747D62" stroke-width="5" stroke-miterlimit="10" stroke-linecap="round" stroke-linejoin="round"/>
<path d="M283.483 96.6822L286.09 76.0387L451.655 96.6822L449.048 117.326L283.483 96.6822Z" stroke="#747D62" stroke-width="5" stroke-miterlimit="10" stroke-linecap="round" stroke-linejoin="round"/>
<path d="M476.364 214.079L476.886 213.975L477.407 213.767L477.928 213.662L478.449 213.558L478.971 213.454L479.492 213.35L480.013 213.245H480.535L481.056 213.141H481.682H482.203H482.724H483.245H483.767L484.288 213.245H484.809L485.852 213.454L486.895 213.662L487.937 213.975L488.98 214.288L489.918 214.705L490.856 215.122L491.795 215.643L492.733 216.165" stroke="#747D62" stroke-width="5" stroke-miterlimit="10" stroke-linecap="round" stroke-linejoin="round"/>
<path d="M160.873 173.522L161.29 173.417L161.707 173.313H162.02H162.437H162.854H163.167H163.584L163.897 173.417L164.314 173.522L164.627 173.626L164.939 173.834L165.252 173.939L165.669 174.147L165.982 174.46L166.295 174.668L166.607 174.981L166.816 175.19L167.129 175.503L167.442 175.92L167.754 176.232L167.963 176.649L168.276 177.066L168.484 177.483L168.797 178.005L169.005 178.422L169.318 178.943L169.527 179.464L169.735 180.09L169.944 180.611L170.257 181.237L170.465 181.758L170.674 182.384L170.778 183.114L170.986 183.739L171.195 184.469L171.403 185.094L171.612 185.824L171.716 186.554L171.925 187.388L172.133 188.118L172.238 188.952L172.446 189.786L172.55 190.516L172.655 191.35L172.863 192.288L172.967 193.122L173.072 193.957L173.176 194.895L173.384 195.833L173.489 196.667L173.593 197.606L173.697 198.544L173.801 199.482L173.906 200.421L174.01 201.463V202.402L174.114 203.34L174.218 204.383L174.323 205.425V206.364L174.427 207.406L174.531 208.344V209.387L174.635 210.43V211.472L174.74 212.515V213.557L174.844 214.496V215.538L174.948 216.581V217.624V218.666L175.053 219.709V220.751V221.69V222.732V223.775L175.157 224.818V225.756V226.798V227.737V228.779V229.718L175.261 230.656V231.594V232.637V233.575V234.409V235.348V236.286V237.12V238.059V238.893V239.727V240.561V241.395V242.229V243.063V243.793V244.523V245.253V245.982V246.712V247.442V248.068V248.693V249.319V249.944V250.57L175.365 251.091V251.612V252.134V252.655V253.176V253.593L175.47 254.01V254.427V254.844V255.157L175.574 255.47V255.783V256.096L175.678 256.408V256.617L175.782 256.825V257.034L175.887 257.242V257.347" stroke="#747D62" stroke-width="5" stroke-miterlimit="10" stroke-linecap="round" stroke-linejoin="round"/>
<path d="M224.263 182.905L224.68 183.218L225.097 183.635L225.514 184.156L225.931 184.678L226.244 185.199L226.661 185.825L226.974 186.554L227.391 187.284L227.704 188.014L228.017 188.848L228.329 189.682L228.642 190.621L228.746 191.142L228.955 191.663L229.059 192.185L229.268 192.602L229.372 193.123L229.476 193.748L229.58 194.27L229.789 194.791L229.893 195.417L229.997 195.938L230.102 196.563L230.206 197.085L230.415 197.71L230.519 198.336L230.623 198.961L230.727 199.587L230.832 200.213L230.936 200.942L231.04 201.568L231.144 202.193L231.249 202.923L231.353 203.549L231.457 204.279V205.008L231.561 205.634L231.666 206.364L231.77 207.094L231.874 207.824V208.553L231.978 209.283L232.083 210.013L232.187 210.743V211.473L232.291 212.202L232.395 213.037V213.766L232.5 214.496L232.604 215.226V216.06L232.708 216.79V217.624L232.813 218.354L232.917 219.188V219.918L233.021 220.752V221.482L233.125 222.211V223.045L233.23 223.775V224.609V225.339L233.334 226.173V226.903L233.438 227.737V228.467L233.542 229.301V230.031V230.761L233.647 231.595V232.325V233.054L233.751 233.889V234.618L233.855 235.348V236.078V236.808L233.959 237.538V238.267V238.997L234.064 239.727V240.457V241.082L234.168 241.812V242.438V243.168L234.272 243.793V244.523V245.149L234.376 245.774V246.4V247.025L234.481 247.651V248.276V248.902L234.585 249.423V250.049V250.57L234.689 251.196V251.717L234.793 252.238V252.76V253.281L234.898 253.802V254.324L235.002 254.741V255.262L235.106 255.679V256.096L235.21 256.513V256.93L235.315 257.347V257.764L235.419 258.077V258.39" stroke="#747D62" stroke-width="5" stroke-miterlimit="10" stroke-linecap="round" stroke-linejoin="round"/>
<path d="M345.83 195.729H346.143H346.56L346.873 195.833L347.186 196.042L347.603 196.146L347.916 196.459L348.228 196.772L348.541 197.085L348.854 197.397L349.167 197.814L349.479 198.336L349.792 198.857L350.001 199.378L350.314 200.004L350.522 200.629L350.835 201.255L351.043 201.985L351.252 202.715L351.565 203.549L351.773 204.383L351.982 205.321L352.19 206.155L352.399 207.093L352.607 208.136L352.816 209.074L353.024 210.117L353.129 211.264L353.337 212.307L353.546 213.453L353.65 214.6L353.858 215.851L353.963 216.998L354.171 218.249L354.275 219.5L354.484 220.752L354.588 222.107L354.692 223.358L354.901 224.713L355.005 226.069L355.109 227.424L355.214 228.78L355.318 230.135L355.527 231.595L355.631 232.95L355.735 234.41L355.839 235.765L355.944 237.225L356.048 238.58L356.152 240.04L356.256 241.395L356.361 242.855L356.465 244.21L356.569 245.67L356.673 247.025L356.778 248.485L356.882 249.84L356.986 251.196L357.09 252.551L357.195 253.906L357.403 255.157L357.507 256.513L357.612 257.764L357.716 259.015L357.82 260.266L357.924 261.1L358.029 261.83L358.133 262.664V263.394L358.237 264.124L358.342 264.958L358.446 265.688L358.55 266.417L358.654 267.043L358.759 267.773L358.863 268.503L358.967 269.128L359.071 269.754L359.176 270.379L359.28 271.005L359.384 271.63L359.488 272.256L359.593 272.882L359.697 273.403L359.801 273.924L359.905 274.446L360.114 274.967L360.218 275.488L360.322 276.009L360.427 276.426L360.635 276.843L360.74 277.365L360.844 277.678L361.052 278.095L361.157 278.512L361.261 278.824L361.469 279.137" stroke="#747D62" stroke-width="5" stroke-miterlimit="10" stroke-linecap="round" stroke-linejoin="round"/>
<path d="M472.819 214.601L473.236 214.392L473.757 214.288L474.174 214.184L474.592 214.079H475.009H475.53H475.947H476.364" stroke="#747D62" stroke-width="5" stroke-miterlimit="10" stroke-linecap="round" stroke-linejoin="round"/>
<path d="M226.349 264.645H226.036L225.827 264.541H225.514L225.202 264.436L224.889 264.228L224.576 264.124L224.263 264.019L224.055 263.811L223.742 263.602L223.429 263.394L223.221 263.081L222.908 262.873L222.595 262.56L222.387 262.247L222.074 261.934L221.865 261.621L221.657 261.204L221.344 260.892L221.136 260.475L220.927 260.058L220.614 259.641L220.406 259.119L220.197 258.702L219.989 258.181L219.78 257.66L219.572 257.138L219.363 256.617L219.155 255.991L218.946 255.47L218.738 254.845L218.529 254.219L218.321 253.593L218.112 252.968L218.008 252.342L217.799 251.613L217.591 250.987L217.382 250.257L217.278 249.527L217.069 248.797L216.965 248.068L216.757 247.338L216.548 246.504L216.444 245.774L216.34 244.94L216.131 244.21L216.027 243.376L215.818 242.542L215.714 241.708L215.61 240.874L215.401 240.04L215.297 239.101L215.193 238.267L215.088 237.433L214.88 236.495L214.776 235.556L214.671 234.722L214.567 233.784L214.463 232.846L214.359 231.907L214.254 230.969L214.15 230.135L214.046 229.197L213.942 228.258L213.837 227.32L213.733 226.277L213.629 225.339L213.525 224.401L213.42 223.462L213.316 222.524V221.586L213.212 220.647L213.108 219.605L213.003 218.666L212.899 217.728L212.795 216.79V215.851L212.691 214.913L212.586 213.975L212.482 213.036V212.098L212.378 211.16L212.273 210.221V209.283L212.169 208.345L212.065 207.406V206.572L211.961 205.634L211.856 204.695V203.861L211.752 202.923L211.648 202.089V201.255L211.544 200.421V199.587L211.439 198.753L211.335 197.919V197.084L211.231 196.355L211.127 195.521V194.791L211.022 194.061V193.331L210.918 192.601L210.814 191.871V191.142L210.71 190.516L210.605 189.891V189.161L210.501 188.535V187.91L210.397 187.388L210.293 186.763V186.241L210.188 185.72L210.084 185.199L209.98 184.678V184.156L209.875 183.739L209.771 183.218V182.801L209.667 182.384L209.563 182.071L209.458 181.654V181.341L209.354 181.028L209.25 180.716L209.146 180.403L209.041 180.194L208.937 179.986L208.833 179.777" stroke="#747D62" stroke-width="5" stroke-miterlimit="10" stroke-linecap="round" stroke-linejoin="round"/>
<path d="M281.189 241.604L280.981 241.082L280.772 240.561L280.564 240.04L280.355 239.414L280.147 238.684L279.938 238.059L279.73 237.329L279.521 236.599L279.313 235.765L279.104 234.931L278.896 234.097L278.687 233.263L278.479 232.324L278.374 231.386L278.166 230.448L277.957 229.509L277.853 228.571L277.645 227.528L277.54 226.486L277.332 225.547L277.227 224.505L277.019 223.358L276.915 222.315L276.706 221.273L276.602 220.23L276.498 219.188L276.393 218.145L276.185 217.102L276.081 216.164L275.976 215.121L275.872 214.079L275.768 213.141L275.664 212.098L275.559 211.16L275.455 210.221L275.351 209.283L275.247 208.345L275.142 207.406V206.572L275.038 205.738L274.934 204.8L274.83 203.966L274.725 203.236V202.402L274.621 201.672L274.517 200.942L274.412 200.212V199.482L274.308 198.857L274.204 198.231L274.1 197.606V197.084L273.995 196.563V196.042L273.891 195.521L273.787 195.104V194.686L273.683 194.374V193.957L273.578 193.644V193.435L273.474 193.123L273.37 192.914V192.81" stroke="#747D62" stroke-width="5" stroke-miterlimit="10" stroke-linecap="round" stroke-linejoin="round"/>
<path d="M405.467 257.973L405.259 257.034L405.154 256.096L404.946 255.053L404.842 254.115L404.633 253.072L404.529 252.134L404.425 251.091L404.216 250.049L404.112 249.111L403.903 248.068L403.799 247.025L403.695 246.087L403.486 245.044L403.382 244.002L403.278 242.959L403.069 241.917L402.965 240.874L402.756 239.936L402.652 238.893L402.548 237.85L402.339 236.912L402.235 235.87L402.131 234.827L401.922 233.889L401.818 232.846L401.714 231.908L401.61 230.969L401.401 229.927L401.297 228.988L401.088 228.05L400.984 227.112L400.88 226.173L400.671 225.235L400.567 224.401L400.463 223.567L400.358 222.733L400.15 221.899L400.046 221.065L399.941 220.231L399.733 219.396L399.629 218.667L399.42 217.833L399.316 217.103L399.212 216.373L399.003 215.643L398.899 214.913L398.69 214.183L398.586 213.558L398.482 212.828L398.273 212.202L398.169 211.577L397.96 210.951L397.856 210.326L397.648 209.7L397.543 209.179L397.335 208.658L397.126 208.032L397.022 207.615L396.814 207.094L396.709 206.572L396.501 206.155L396.292 205.738L396.188 205.321L395.979 204.904" stroke="#747D62" stroke-width="5" stroke-miterlimit="10" stroke-linecap="round" stroke-linejoin="round"/>
</g>
</svg>
