<svg width="1135" height="437" viewBox="0 0 1135 437" fill="none" xmlns="http://www.w3.org/2000/svg">
<rect x="1132" y="3" width="432" height="1077" transform="rotate(90 1132 3)" fill="#A4AC86" fill-opacity="0.09"/>
<path d="M1132.04 3.00005V101.094L347.283 101.094L347.283 3.00001L1132.04 3.00005Z" fill="#667433" fill-opacity="0.13"/>
<path d="M347 3.00001L347 435H55L55 3L347 3.00001Z" fill="#667433" fill-opacity="0.13"/>
<rect x="347.283" y="3" width="156.951" height="431.615" fill="#A4AC86"/>
<path d="M198.295 145.713V127.584H204.421C205.837 127.584 207 127.826 207.909 128.31C208.817 128.788 209.49 129.446 209.927 130.284C210.364 131.122 210.582 132.075 210.582 133.143C210.582 134.211 210.364 135.159 209.927 135.985C209.49 136.811 208.82 137.46 207.917 137.932C207.015 138.398 205.861 138.632 204.456 138.632H199.499V136.649H204.386C205.353 136.649 206.132 136.507 206.722 136.224C207.318 135.941 207.749 135.539 208.015 135.02C208.286 134.495 208.422 133.869 208.422 133.143C208.422 132.417 208.286 131.783 208.015 131.24C207.743 130.697 207.31 130.278 206.714 129.983C206.118 129.682 205.33 129.532 204.35 129.532H200.491V145.713H198.295ZM206.829 137.569L211.29 145.713H208.741L204.35 137.569H206.829ZM219.511 145.996C218.201 145.996 217.071 145.707 216.121 145.129C215.177 144.545 214.448 143.73 213.935 142.686C213.427 141.635 213.173 140.414 213.173 139.021C213.173 137.628 213.427 136.401 213.935 135.339C214.448 134.27 215.162 133.438 216.077 132.842C216.997 132.24 218.071 131.939 219.299 131.939C220.007 131.939 220.706 132.057 221.397 132.293C222.087 132.53 222.716 132.913 223.282 133.444C223.849 133.969 224.3 134.666 224.637 135.533C224.973 136.401 225.141 137.469 225.141 138.738V139.623H214.66V137.817H223.017C223.017 137.05 222.863 136.365 222.556 135.763C222.256 135.162 221.825 134.686 221.264 134.338C220.709 133.99 220.054 133.816 219.299 133.816C218.467 133.816 217.747 134.023 217.139 134.436C216.537 134.843 216.074 135.374 215.749 136.029C215.425 136.684 215.262 137.386 215.262 138.136V139.34C215.262 140.367 215.439 141.237 215.794 141.951C216.154 142.659 216.652 143.199 217.29 143.571C217.927 143.937 218.668 144.12 219.511 144.12C220.06 144.12 220.556 144.043 220.999 143.89C221.447 143.73 221.834 143.494 222.158 143.181C222.483 142.863 222.734 142.467 222.911 141.995L224.929 142.562C224.716 143.246 224.359 143.848 223.858 144.368C223.356 144.881 222.736 145.282 221.999 145.572C221.261 145.855 220.432 145.996 219.511 145.996ZM230.408 137.534V145.713H228.319V132.116H230.337V134.241H230.514C230.833 133.55 231.317 132.996 231.966 132.577C232.615 132.152 233.453 131.939 234.48 131.939C235.401 131.939 236.206 132.128 236.897 132.506C237.587 132.878 238.124 133.444 238.508 134.206C238.891 134.961 239.083 135.917 239.083 137.074V145.713H236.994V137.215C236.994 136.147 236.717 135.315 236.162 134.719C235.607 134.117 234.846 133.816 233.878 133.816C233.211 133.816 232.615 133.961 232.09 134.25C231.571 134.539 231.161 134.961 230.86 135.516C230.559 136.07 230.408 136.743 230.408 137.534ZM248.601 145.996C247.291 145.996 246.161 145.707 245.211 145.129C244.267 144.545 243.538 143.73 243.025 142.686C242.517 141.635 242.263 140.414 242.263 139.021C242.263 137.628 242.517 136.401 243.025 135.339C243.538 134.27 244.252 133.438 245.167 132.842C246.087 132.24 247.161 131.939 248.389 131.939C249.097 131.939 249.796 132.057 250.487 132.293C251.177 132.53 251.806 132.913 252.372 133.444C252.939 133.969 253.39 134.666 253.727 135.533C254.063 136.401 254.231 137.469 254.231 138.738V139.623H243.75V137.817H252.107C252.107 137.05 251.953 136.365 251.646 135.763C251.345 135.162 250.915 134.686 250.354 134.338C249.799 133.99 249.144 133.816 248.389 133.816C247.557 133.816 246.837 134.023 246.229 134.436C245.627 134.843 245.164 135.374 244.839 136.029C244.515 136.684 244.352 137.386 244.352 138.136V139.34C244.352 140.367 244.529 141.237 244.883 141.951C245.243 142.659 245.742 143.199 246.379 143.571C247.017 143.937 247.757 144.12 248.601 144.12C249.15 144.12 249.646 144.043 250.088 143.89C250.537 143.73 250.924 143.494 251.248 143.181C251.573 142.863 251.823 142.467 252.001 141.995L254.019 142.562C253.806 143.246 253.449 143.848 252.948 144.368C252.446 144.881 251.826 145.282 251.089 145.572C250.351 145.855 249.522 145.996 248.601 145.996ZM260.49 145.713L256.347 132.116H258.542L261.481 142.526H261.623L264.526 132.116H266.757L269.625 142.491H269.767L272.705 132.116H274.901L270.758 145.713H268.704L265.73 135.268H265.518L262.543 145.713H260.49ZM281.664 146.032C280.802 146.032 280.02 145.87 279.318 145.545C278.616 145.214 278.058 144.739 277.645 144.12C277.232 143.494 277.025 142.739 277.025 141.854C277.025 141.075 277.179 140.443 277.485 139.959C277.792 139.47 278.202 139.086 278.716 138.809C279.229 138.531 279.796 138.325 280.415 138.189C281.041 138.047 281.67 137.935 282.301 137.853C283.127 137.746 283.797 137.667 284.31 137.614C284.83 137.555 285.207 137.457 285.443 137.321C285.685 137.186 285.806 136.95 285.806 136.613V136.542C285.806 135.669 285.567 134.99 285.089 134.506C284.617 134.023 283.9 133.781 282.938 133.781C281.941 133.781 281.159 133.999 280.593 134.436C280.026 134.872 279.628 135.339 279.397 135.834L277.415 135.126C277.769 134.3 278.241 133.657 278.831 133.196C279.427 132.73 280.076 132.406 280.778 132.223C281.487 132.034 282.183 131.939 282.867 131.939C283.304 131.939 283.806 131.993 284.372 132.099C284.945 132.199 285.497 132.409 286.028 132.727C286.565 133.046 287.01 133.527 287.364 134.17C287.718 134.813 287.895 135.675 287.895 136.755V145.713H285.806V143.872H285.7C285.558 144.167 285.322 144.483 284.992 144.819C284.661 145.155 284.222 145.442 283.673 145.678C283.124 145.914 282.454 146.032 281.664 146.032ZM281.982 144.155C282.808 144.155 283.505 143.993 284.071 143.668C284.644 143.344 285.075 142.925 285.364 142.411C285.659 141.898 285.806 141.358 285.806 140.791V138.879C285.718 138.986 285.523 139.083 285.222 139.171C284.927 139.254 284.585 139.328 284.195 139.393C283.812 139.452 283.437 139.505 283.071 139.552C282.711 139.593 282.419 139.629 282.195 139.658C281.652 139.729 281.144 139.844 280.672 140.004C280.206 140.157 279.828 140.39 279.539 140.703C279.256 141.01 279.114 141.429 279.114 141.96C279.114 142.686 279.383 143.235 279.92 143.606C280.463 143.972 281.15 144.155 281.982 144.155ZM291.992 145.713V127.584H294.081V134.276H294.258C294.411 134.04 294.624 133.739 294.895 133.373C295.173 133.002 295.568 132.671 296.081 132.382C296.601 132.087 297.303 131.939 298.188 131.939C299.333 131.939 300.342 132.226 301.215 132.798C302.089 133.37 302.77 134.182 303.26 135.232C303.75 136.283 303.995 137.522 303.995 138.95C303.995 140.39 303.75 141.638 303.26 142.695C302.77 143.745 302.092 144.559 301.224 145.138C300.357 145.71 299.357 145.996 298.224 145.996C297.35 145.996 296.651 145.852 296.126 145.563C295.6 145.268 295.196 144.934 294.913 144.562C294.63 144.185 294.411 143.872 294.258 143.624H294.01V145.713H291.992ZM294.045 138.915C294.045 139.942 294.196 140.847 294.497 141.632C294.798 142.411 295.237 143.022 295.816 143.465C296.394 143.901 297.102 144.12 297.94 144.12C298.814 144.12 299.542 143.89 300.127 143.429C300.717 142.963 301.159 142.338 301.454 141.553C301.755 140.762 301.906 139.883 301.906 138.915C301.906 137.959 301.758 137.097 301.463 136.33C301.174 135.557 300.735 134.946 300.144 134.498C299.56 134.043 298.825 133.816 297.94 133.816C297.09 133.816 296.376 134.031 295.798 134.462C295.22 134.887 294.783 135.483 294.488 136.25C294.193 137.012 294.045 137.9 294.045 138.915ZM309.28 127.584V145.713H307.191V127.584H309.28ZM318.807 145.996C317.497 145.996 316.366 145.707 315.416 145.129C314.472 144.545 313.743 143.73 313.23 142.686C312.722 141.635 312.469 140.414 312.469 139.021C312.469 137.628 312.722 136.401 313.23 135.339C313.743 134.27 314.457 133.438 315.372 132.842C316.293 132.24 317.367 131.939 318.594 131.939C319.302 131.939 320.002 132.057 320.692 132.293C321.383 132.53 322.011 132.913 322.578 133.444C323.144 133.969 323.596 134.666 323.932 135.533C324.268 136.401 324.437 137.469 324.437 138.738V139.623H313.956V137.817H322.312C322.312 137.05 322.159 136.365 321.852 135.763C321.551 135.162 321.12 134.686 320.559 134.338C320.005 133.99 319.35 133.816 318.594 133.816C317.762 133.816 317.042 134.023 316.434 134.436C315.832 134.843 315.369 135.374 315.045 136.029C314.72 136.684 314.558 137.386 314.558 138.136V139.34C314.558 140.367 314.735 141.237 315.089 141.951C315.449 142.659 315.947 143.199 316.585 143.571C317.222 143.937 317.963 144.12 318.807 144.12C319.355 144.12 319.851 144.043 320.294 143.89C320.742 143.73 321.129 143.494 321.453 143.181C321.778 142.863 322.029 142.467 322.206 141.995L324.224 142.562C324.012 143.246 323.655 143.848 323.153 144.368C322.651 144.881 322.032 145.282 321.294 145.572C320.556 145.855 319.727 145.996 318.807 145.996Z" fill="#656D4A"/>
<path d="M535.248 44V25.8711H541.887C543.173 25.8711 544.238 26.0835 545.082 26.5084C545.926 26.9274 546.558 27.4969 546.977 28.2169C547.396 28.9309 547.605 29.7365 547.605 30.6335C547.605 31.3888 547.466 32.0262 547.189 32.5455C546.912 33.0589 546.54 33.472 546.074 33.7848C545.613 34.0916 545.106 34.3159 544.551 34.4575V34.6346C545.153 34.6641 545.74 34.8588 546.313 35.2188C546.891 35.5729 547.369 36.0774 547.747 36.7325C548.124 37.3875 548.313 38.1842 548.313 39.1225C548.313 40.0491 548.095 40.8811 547.658 41.6188C547.227 42.3506 546.561 42.9319 545.658 43.3627C544.755 43.7876 543.601 44 542.197 44H535.248ZM537.983 41.6542H541.931C543.241 41.6542 544.179 41.4005 544.746 40.8929C545.312 40.3854 545.596 39.751 545.596 38.9898C545.596 38.4173 545.451 37.8921 545.162 37.4141C544.873 36.9361 544.46 36.5555 543.923 36.2722C543.392 35.9889 542.76 35.8473 542.028 35.8473H537.983V41.6542ZM537.983 33.714H541.648C542.261 33.714 542.813 33.5959 543.303 33.3599C543.799 33.1238 544.191 32.7933 544.48 32.3685C544.775 31.9377 544.923 31.4301 544.923 30.8459C544.923 30.0964 544.66 29.4679 544.135 28.9604C543.61 28.4529 542.804 28.1992 541.718 28.1992H537.983V33.714ZM551.345 44V30.4033H553.992V44H551.345ZM552.682 28.3054C552.221 28.3054 551.826 28.1519 551.496 27.8451C551.171 27.5323 551.009 27.1605 551.009 26.7297C551.009 26.293 551.171 25.9212 551.496 25.6144C551.826 25.3016 552.221 25.1452 552.682 25.1452C553.142 25.1452 553.534 25.3016 553.859 25.6144C554.19 25.9212 554.355 26.293 554.355 26.7297C554.355 27.1605 554.19 27.5323 553.859 27.8451C553.534 28.1519 553.142 28.3054 552.682 28.3054ZM563.28 44.2744C562.005 44.2744 560.893 43.9823 559.943 43.3981C558.992 42.8138 558.255 41.9965 557.73 40.9461C557.204 39.8956 556.942 38.6681 556.942 37.2636C556.942 35.8532 557.204 34.6198 557.73 33.5635C558.255 32.5071 558.992 31.6868 559.943 31.1026C560.893 30.5184 562.005 30.2263 563.28 30.2263C564.554 30.2263 565.667 30.5184 566.617 31.1026C567.567 31.6868 568.305 32.5071 568.83 33.5635C569.355 34.6198 569.618 35.8532 569.618 37.2636C569.618 38.6681 569.355 39.8956 568.83 40.9461C568.305 41.9965 567.567 42.8138 566.617 43.3981C565.667 43.9823 564.554 44.2744 563.28 44.2744ZM563.289 42.0526C564.115 42.0526 564.799 41.8342 565.342 41.3975C565.885 40.9608 566.287 40.3795 566.546 39.6537C566.812 38.9278 566.945 38.1282 566.945 37.2548C566.945 36.3873 566.812 35.5906 566.546 34.8647C566.287 34.133 565.885 33.5458 565.342 33.1032C564.799 32.6606 564.115 32.4393 563.289 32.4393C562.457 32.4393 561.766 32.6606 561.217 33.1032C560.674 33.5458 560.27 34.133 560.005 34.8647C559.745 35.5906 559.615 36.3873 559.615 37.2548C559.615 38.1282 559.745 38.9278 560.005 39.6537C560.27 40.3795 560.674 40.9608 561.217 41.3975C561.766 41.8342 562.457 42.0526 563.289 42.0526ZM572.572 44V30.4033H575.113V32.6163H575.281C575.564 31.8668 576.027 31.2826 576.671 30.8636C577.314 30.4387 578.084 30.2263 578.981 30.2263C579.89 30.2263 580.651 30.4387 581.265 30.8636C581.885 31.2885 582.342 31.8727 582.637 32.6163H582.779C583.103 31.8904 583.62 31.3121 584.328 30.8813C585.036 30.4446 585.88 30.2263 586.859 30.2263C588.093 30.2263 589.099 30.6128 589.878 31.3859C590.663 32.159 591.055 33.3245 591.055 34.8824V44H588.408V35.1303C588.408 34.2097 588.158 33.5428 587.656 33.1297C587.154 32.7166 586.555 32.5101 585.859 32.5101C584.997 32.5101 584.328 32.7756 583.85 33.3068C583.372 33.832 583.133 34.5077 583.133 35.3339V44H580.495V34.9621C580.495 34.2244 580.265 33.6313 579.804 33.1828C579.344 32.7343 578.745 32.5101 578.007 32.5101C577.506 32.5101 577.042 32.6429 576.618 32.9084C576.199 33.1681 575.859 33.531 575.6 33.9972C575.346 34.4634 575.219 35.0034 575.219 35.6171V44H572.572ZM598.559 44.301C597.698 44.301 596.919 44.1416 596.223 43.823C595.526 43.4984 594.974 43.0292 594.567 42.4155C594.166 41.8017 593.965 41.0493 593.965 40.1582C593.965 39.3911 594.113 38.7596 594.408 38.2639C594.703 37.7682 595.101 37.3757 595.603 37.0866C596.105 36.7974 596.665 36.5791 597.285 36.4315C597.904 36.284 598.536 36.1719 599.179 36.0952C599.994 36.0007 600.654 35.924 601.162 35.865C601.669 35.8001 602.038 35.6968 602.268 35.5552C602.499 35.4135 602.614 35.1834 602.614 34.8647V34.8028C602.614 34.0297 602.395 33.4307 601.959 33.0058C601.528 32.5809 600.885 32.3685 600.029 32.3685C599.138 32.3685 598.436 32.5661 597.922 32.9615C597.415 33.351 597.063 33.7848 596.869 34.2628L594.381 33.6963C594.676 32.8701 595.107 32.2032 595.674 31.6957C596.246 31.1823 596.904 30.8105 597.648 30.5803C598.391 30.3443 599.173 30.2263 599.994 30.2263C600.536 30.2263 601.112 30.2912 601.72 30.421C602.333 30.5449 602.906 30.7751 603.437 31.1115C603.974 31.4478 604.414 31.9288 604.756 32.5543C605.098 33.174 605.269 33.9795 605.269 34.9709V44H602.685V42.1411H602.578C602.407 42.4834 602.15 42.8197 601.808 43.1502C601.466 43.4807 601.026 43.7551 600.489 43.9734C599.952 44.1918 599.309 44.301 598.559 44.301ZM599.135 42.1765C599.867 42.1765 600.492 42.0319 601.011 41.7427C601.537 41.4536 601.935 41.0759 602.207 40.6097C602.484 40.1376 602.623 39.633 602.623 39.096V37.3433C602.528 37.4377 602.345 37.5262 602.074 37.6088C601.808 37.6856 601.504 37.7534 601.162 37.8124C600.82 37.8656 600.486 37.9157 600.162 37.9629C599.837 38.0042 599.566 38.0396 599.347 38.0692C598.834 38.1341 598.365 38.2432 597.94 38.3967C597.521 38.5501 597.184 38.7714 596.931 39.0606C596.683 39.3438 596.559 39.7215 596.559 40.1936C596.559 40.8487 596.801 41.3444 597.285 41.6808C597.769 42.0112 598.385 42.1765 599.135 42.1765ZM618.983 33.7228L616.584 34.1477C616.484 33.8408 616.325 33.5487 616.106 33.2714C615.894 32.994 615.605 32.7668 615.239 32.5898C614.873 32.4127 614.416 32.3242 613.867 32.3242C613.117 32.3242 612.492 32.4924 611.99 32.8288C611.489 33.1592 611.238 33.5871 611.238 34.1123C611.238 34.5667 611.406 34.9326 611.742 35.2099C612.079 35.4873 612.622 35.7145 613.371 35.8916L615.531 36.3873C616.782 36.6764 617.715 37.122 618.328 37.7239C618.942 38.3259 619.249 39.1078 619.249 40.0697C619.249 40.8841 619.013 41.61 618.541 42.2473C618.074 42.8787 617.422 43.3745 616.584 43.7344C615.752 44.0944 614.787 44.2744 613.69 44.2744C612.167 44.2744 610.925 43.9498 609.963 43.3007C609.001 42.6456 608.411 41.7162 608.193 40.5123L610.751 40.1228C610.91 40.7897 611.238 41.2942 611.733 41.6365C612.229 41.9729 612.875 42.1411 613.672 42.1411C614.54 42.1411 615.233 41.9611 615.752 41.6011C616.272 41.2352 616.531 40.7897 616.531 40.2644C616.531 39.8396 616.372 39.4825 616.053 39.1934C615.741 38.9042 615.26 38.6858 614.61 38.5383L612.309 38.0337C611.04 37.7446 610.102 37.2843 609.494 36.6528C608.892 36.0214 608.591 35.2218 608.591 34.2539C608.591 33.4513 608.815 32.7491 609.264 32.1472C609.712 31.5452 610.332 31.0761 611.123 30.7397C611.913 30.3974 612.819 30.2263 613.84 30.2263C615.31 30.2263 616.466 30.5449 617.31 31.1823C618.154 31.8137 618.712 32.6606 618.983 33.7228ZM632.348 33.7228L629.949 34.1477C629.848 33.8408 629.689 33.5487 629.471 33.2714C629.258 32.994 628.969 32.7668 628.603 32.5898C628.237 32.4127 627.78 32.3242 627.231 32.3242C626.482 32.3242 625.856 32.4924 625.355 32.8288C624.853 33.1592 624.602 33.5871 624.602 34.1123C624.602 34.5667 624.77 34.9326 625.107 35.2099C625.443 35.4873 625.986 35.7145 626.735 35.8916L628.895 36.3873C630.146 36.6764 631.079 37.122 631.693 37.7239C632.306 38.3259 632.613 39.1078 632.613 40.0697C632.613 40.8841 632.377 41.61 631.905 42.2473C631.439 42.8787 630.787 43.3745 629.949 43.7344C629.117 44.0944 628.152 44.2744 627.054 44.2744C625.532 44.2744 624.289 43.9498 623.327 43.3007C622.366 42.6456 621.775 41.7162 621.557 40.5123L624.115 40.1228C624.275 40.7897 624.602 41.2942 625.098 41.6365C625.594 41.9729 626.24 42.1411 627.036 42.1411C627.904 42.1411 628.597 41.9611 629.117 41.6011C629.636 41.2352 629.896 40.7897 629.896 40.2644C629.896 39.8396 629.736 39.4825 629.418 39.1934C629.105 38.9042 628.624 38.6858 627.975 38.5383L625.673 38.0337C624.404 37.7446 623.466 37.2843 622.858 36.6528C622.256 36.0214 621.955 35.2218 621.955 34.2539C621.955 33.4513 622.18 32.7491 622.628 32.1472C623.077 31.5452 623.696 31.0761 624.487 30.7397C625.278 30.3974 626.184 30.2263 627.205 30.2263C628.674 30.2263 629.831 30.5449 630.675 31.1823C631.518 31.8137 632.076 32.6606 632.348 33.7228ZM551.521 76V57.8711H558.16C559.446 57.8711 560.512 58.0835 561.356 58.5084C562.199 58.9274 562.831 59.4969 563.25 60.2169C563.669 60.9309 563.878 61.7365 563.878 62.6335C563.878 63.3888 563.74 64.0262 563.462 64.5455C563.185 65.0589 562.813 65.472 562.347 65.7848C561.887 66.0916 561.379 66.3159 560.824 66.4575V66.6346C561.426 66.6641 562.014 66.8588 562.586 67.2188C563.164 67.5729 563.642 68.0774 564.02 68.7325C564.398 69.3875 564.587 70.1842 564.587 71.1225C564.587 72.0491 564.368 72.8811 563.932 73.6188C563.501 74.3506 562.834 74.9319 561.931 75.3627C561.028 75.7876 559.874 76 558.47 76H551.521ZM554.256 73.6542H558.204C559.514 73.6542 560.453 73.4005 561.019 72.8929C561.586 72.3854 561.869 71.751 561.869 70.9898C561.869 70.4173 561.724 69.8921 561.435 69.4141C561.146 68.9361 560.733 68.5555 560.196 68.2722C559.665 67.9889 559.033 67.8473 558.302 67.8473H554.256V73.6542ZM554.256 65.714H557.921C558.535 65.714 559.087 65.5959 559.576 65.3599C560.072 65.1238 560.464 64.7933 560.754 64.3685C561.049 63.9377 561.196 63.4301 561.196 62.8459C561.196 62.0964 560.934 61.4679 560.408 60.9604C559.883 60.4529 559.078 60.1992 557.992 60.1992H554.256V65.714ZM573.346 76.2744C572.071 76.2744 570.959 75.9823 570.008 75.3981C569.058 74.8138 568.321 73.9965 567.795 72.9461C567.27 71.8956 567.008 70.6681 567.008 69.2636C567.008 67.8532 567.27 66.6198 567.795 65.5635C568.321 64.5071 569.058 63.6868 570.008 63.1026C570.959 62.5184 572.071 62.2263 573.346 62.2263C574.62 62.2263 575.733 62.5184 576.683 63.1026C577.633 63.6868 578.371 64.5071 578.896 65.5635C579.421 66.6198 579.684 67.8532 579.684 69.2636C579.684 70.6681 579.421 71.8956 578.896 72.9461C578.371 73.9965 577.633 74.8138 576.683 75.3981C575.733 75.9823 574.62 76.2744 573.346 76.2744ZM573.354 74.0526C574.181 74.0526 574.865 73.8342 575.408 73.3975C575.951 72.9608 576.352 72.3795 576.612 71.6537C576.878 70.9278 577.01 70.1282 577.01 69.2548C577.01 68.3873 576.878 67.5906 576.612 66.8647C576.352 66.133 575.951 65.5458 575.408 65.1032C574.865 64.6606 574.181 64.4393 573.354 64.4393C572.522 64.4393 571.832 64.6606 571.283 65.1032C570.74 65.5458 570.336 66.133 570.07 66.8647C569.811 67.5906 569.681 68.3873 569.681 69.2548C569.681 70.1282 569.811 70.9278 570.07 71.6537C570.336 72.3795 570.74 72.9608 571.283 73.3975C571.832 73.8342 572.522 74.0526 573.354 74.0526ZM582.638 76V62.4033H585.285V76H582.638ZM583.975 60.3054C583.514 60.3054 583.119 60.1519 582.789 59.8451C582.464 59.5323 582.302 59.1605 582.302 58.7297C582.302 58.293 582.464 57.9212 582.789 57.6144C583.119 57.3016 583.514 57.1452 583.975 57.1452C584.435 57.1452 584.827 57.3016 585.152 57.6144C585.482 57.9212 585.648 58.293 585.648 58.7297C585.648 59.1605 585.482 59.5323 585.152 59.8451C584.827 60.1519 584.435 60.3054 583.975 60.3054ZM591.492 57.8711V76H588.846V57.8711H591.492ZM600.913 76.2744C599.573 76.2744 598.42 75.9882 597.452 75.4158C596.49 74.8374 595.746 74.026 595.221 72.9815C594.702 71.931 594.442 70.7006 594.442 69.2902C594.442 67.8975 594.702 66.67 595.221 65.6077C595.746 64.5455 596.478 63.7164 597.416 63.1203C598.361 62.5243 599.464 62.2263 600.727 62.2263C601.494 62.2263 602.238 62.3531 602.958 62.6069C603.678 62.8607 604.324 63.259 604.896 63.8019C605.469 64.3448 605.92 65.0501 606.251 65.9176C606.581 66.7792 606.746 67.8266 606.746 69.06V69.9983H595.938V68.0155H604.153C604.153 67.3191 604.011 66.7024 603.728 66.1654C603.445 65.6225 603.046 65.1946 602.533 64.8819C602.025 64.5691 601.429 64.4127 600.745 64.4127C600.001 64.4127 599.352 64.5957 598.797 64.9615C598.249 65.3215 597.824 65.7936 597.523 66.3779C597.228 66.9562 597.08 67.5847 597.08 68.2633V69.8124C597.08 70.7212 597.239 71.4943 597.558 72.1317C597.883 72.769 598.334 73.2559 598.912 73.5923C599.491 73.9227 600.166 74.088 600.94 74.088C601.441 74.088 601.899 74.0171 602.312 73.8755C602.725 73.728 603.082 73.5096 603.383 73.2205C603.684 72.9313 603.914 72.5743 604.073 72.1494L606.578 72.6008C606.378 73.3385 606.018 73.9847 605.498 74.5394C604.985 75.0882 604.339 75.5161 603.56 75.823C602.787 76.1239 601.904 76.2744 600.913 76.2744ZM609.683 76V62.4033H612.241V64.5632H612.383C612.631 63.8314 613.068 63.256 613.693 62.8371C614.325 62.4122 615.039 62.1997 615.835 62.1997C616.001 62.1997 616.195 62.2056 616.42 62.2174C616.65 62.2292 616.83 62.244 616.96 62.2617V64.7933C616.853 64.7638 616.664 64.7314 616.393 64.696C616.122 64.6547 615.85 64.634 615.579 64.634C614.953 64.634 614.395 64.7668 613.906 65.0324C613.422 65.292 613.038 65.6549 612.755 66.1212C612.472 66.5815 612.33 67.1067 612.33 67.6968V76H609.683Z" fill="#656D4A"/>
<path d="M710.846 44H704.977V25.8711H711.032C712.808 25.8711 714.334 26.234 715.608 26.9599C716.883 27.6798 717.86 28.7155 718.538 30.0669C719.223 31.4124 719.565 33.0265 719.565 34.909C719.565 36.7974 719.22 38.4203 718.53 39.7776C717.845 41.1349 716.854 42.1794 715.555 42.9112C714.257 43.6371 712.687 44 710.846 44ZM707.712 41.61H710.696C712.076 41.61 713.224 41.3503 714.139 40.831C715.054 40.3058 715.738 39.5474 716.193 38.556C716.647 37.5587 716.874 36.343 716.874 34.909C716.874 33.4868 716.647 32.2799 716.193 31.2885C715.744 30.2971 715.074 29.5447 714.183 29.0312C713.292 28.5178 712.186 28.2611 710.864 28.2611H707.712V41.61ZM722.754 44V30.4033H725.401V44H722.754ZM724.091 28.3054C723.631 28.3054 723.235 28.1519 722.905 27.8451C722.58 27.5323 722.418 27.1605 722.418 26.7297C722.418 26.293 722.58 25.9212 722.905 25.6144C723.235 25.3016 723.631 25.1452 724.091 25.1452C724.551 25.1452 724.944 25.3016 725.268 25.6144C725.599 25.9212 725.764 26.293 725.764 26.7297C725.764 27.1605 725.599 27.5323 725.268 27.8451C724.944 28.1519 724.551 28.3054 724.091 28.3054ZM734.822 44.2744C733.482 44.2744 732.328 43.9882 731.361 43.4158C730.399 42.8374 729.655 42.026 729.13 40.9815C728.611 39.931 728.351 38.7006 728.351 37.2902C728.351 35.8975 728.611 34.67 729.13 33.6077C729.655 32.5455 730.387 31.7164 731.325 31.1203C732.269 30.5243 733.373 30.2263 734.636 30.2263C735.403 30.2263 736.147 30.3531 736.867 30.6069C737.586 30.8607 738.233 31.259 738.805 31.8019C739.378 32.3448 739.829 33.0501 740.159 33.9176C740.49 34.7792 740.655 35.8266 740.655 37.06V37.9983H729.847V36.0155H738.062C738.062 35.3191 737.92 34.7024 737.637 34.1654C737.353 33.6225 736.955 33.1946 736.442 32.8819C735.934 32.5691 735.338 32.4127 734.654 32.4127C733.91 32.4127 733.261 32.5957 732.706 32.9615C732.157 33.3215 731.732 33.7936 731.431 34.3779C731.136 34.9562 730.989 35.5847 730.989 36.2633V37.8124C730.989 38.7212 731.148 39.4943 731.467 40.1317C731.791 40.769 732.243 41.2559 732.821 41.5923C733.399 41.9227 734.075 42.088 734.848 42.088C735.35 42.088 735.807 42.0171 736.22 41.8755C736.633 41.728 736.99 41.5096 737.291 41.2205C737.592 40.9313 737.823 40.5743 737.982 40.1494L740.487 40.6008C740.286 41.3385 739.926 41.9847 739.407 42.5394C738.894 43.0882 738.247 43.5161 737.468 43.823C736.695 44.1239 735.813 44.2744 734.822 44.2744ZM753.781 33.7228L751.382 34.1477C751.281 33.8408 751.122 33.5487 750.904 33.2714C750.691 32.994 750.402 32.7668 750.036 32.5898C749.67 32.4127 749.213 32.3242 748.664 32.3242C747.915 32.3242 747.289 32.4924 746.787 32.8288C746.286 33.1592 746.035 33.5871 746.035 34.1123C746.035 34.5667 746.203 34.9326 746.54 35.2099C746.876 35.4873 747.419 35.7145 748.168 35.8916L750.328 36.3873C751.579 36.6764 752.512 37.122 753.125 37.7239C753.739 38.3259 754.046 39.1078 754.046 40.0697C754.046 40.8841 753.81 41.61 753.338 42.2473C752.872 42.8787 752.22 43.3745 751.382 43.7344C750.55 44.0944 749.585 44.2744 748.487 44.2744C746.964 44.2744 745.722 43.9498 744.76 43.3007C743.798 42.6456 743.208 41.7162 742.99 40.5123L745.548 40.1228C745.707 40.7897 746.035 41.2942 746.531 41.6365C747.026 41.9729 747.673 42.1411 748.469 42.1411C749.337 42.1411 750.03 41.9611 750.55 41.6011C751.069 41.2352 751.329 40.7897 751.329 40.2644C751.329 39.8396 751.169 39.4825 750.85 39.1934C750.538 38.9042 750.057 38.6858 749.408 38.5383L747.106 38.0337C745.837 37.7446 744.899 37.2843 744.291 36.6528C743.689 36.0214 743.388 35.2218 743.388 34.2539C743.388 33.4513 743.612 32.7491 744.061 32.1472C744.51 31.5452 745.129 31.0761 745.92 30.7397C746.711 30.3974 747.617 30.2263 748.637 30.2263C750.107 30.2263 751.264 30.5449 752.107 31.1823C752.951 31.8137 753.509 32.6606 753.781 33.7228ZM762.816 44.2744C761.477 44.2744 760.323 43.9882 759.355 43.4158C758.393 42.8374 757.65 42.026 757.124 40.9815C756.605 39.931 756.345 38.7006 756.345 37.2902C756.345 35.8975 756.605 34.67 757.124 33.6077C757.65 32.5455 758.381 31.7164 759.32 31.1203C760.264 30.5243 761.367 30.2263 762.63 30.2263C763.397 30.2263 764.141 30.3531 764.861 30.6069C765.581 30.8607 766.227 31.259 766.8 31.8019C767.372 32.3448 767.823 33.0501 768.154 33.9176C768.484 34.7792 768.65 35.8266 768.65 37.06V37.9983H757.841V36.0155H766.056C766.056 35.3191 765.914 34.7024 765.631 34.1654C765.348 33.6225 764.95 33.1946 764.436 32.8819C763.929 32.5691 763.333 32.4127 762.648 32.4127C761.904 32.4127 761.255 32.5957 760.701 32.9615C760.152 33.3215 759.727 33.7936 759.426 34.3779C759.131 34.9562 758.983 35.5847 758.983 36.2633V37.8124C758.983 38.7212 759.143 39.4943 759.461 40.1317C759.786 40.769 760.237 41.2559 760.816 41.5923C761.394 41.9227 762.07 42.088 762.843 42.088C763.344 42.088 763.802 42.0171 764.215 41.8755C764.628 41.728 764.985 41.5096 765.286 41.2205C765.587 40.9313 765.817 40.5743 765.976 40.1494L768.481 40.6008C768.281 41.3385 767.921 41.9847 767.402 42.5394C766.888 43.0882 766.242 43.5161 765.463 43.823C764.69 44.1239 763.808 44.2744 762.816 44.2744ZM774.233 25.8711V44H771.586V25.8711H774.233ZM704.795 76V57.8711H707.441V64.6075H707.601C707.754 64.3242 707.975 63.9967 708.265 63.6249C708.554 63.2531 708.955 62.9285 709.468 62.6512C709.982 62.3679 710.661 62.2263 711.504 62.2263C712.602 62.2263 713.582 62.5036 714.443 63.0584C715.305 63.6131 715.981 64.4127 716.47 65.4573C716.966 66.5018 717.214 67.7588 717.214 69.2282C717.214 70.6976 716.969 71.9576 716.479 73.008C715.989 74.0526 715.317 74.8581 714.461 75.4246C713.605 75.9852 712.629 76.2656 711.531 76.2656C710.705 76.2656 710.029 76.1269 709.504 75.8495C708.985 75.5722 708.577 75.2476 708.282 74.8758C707.987 74.504 707.76 74.1735 707.601 73.8844H707.379V76H704.795ZM707.388 69.2017C707.388 70.1577 707.527 70.9957 707.804 71.7156C708.082 72.4356 708.483 72.9992 709.008 73.4064C709.533 73.8077 710.177 74.0083 710.938 74.0083C711.729 74.0083 712.39 73.7988 712.921 73.3798C713.452 72.9549 713.853 72.3795 714.125 71.6537C714.402 70.9278 714.541 70.1105 714.541 69.2017C714.541 68.3046 714.405 67.4991 714.133 66.7851C713.868 66.071 713.467 65.5074 712.93 65.0943C712.398 64.6812 711.735 64.4747 710.938 64.4747C710.171 64.4747 709.522 64.6724 708.99 65.0678C708.465 65.4632 708.067 66.0149 707.795 66.7231C707.524 67.4312 707.388 68.2574 707.388 69.2017ZM724.143 76.301C723.281 76.301 722.502 76.1416 721.806 75.823C721.11 75.4984 720.558 75.0292 720.151 74.4155C719.749 73.8017 719.549 73.0493 719.549 72.1582C719.549 71.3911 719.696 70.7596 719.991 70.2639C720.286 69.7682 720.685 69.3757 721.186 69.0866C721.688 68.7974 722.249 68.5791 722.868 68.4315C723.488 68.284 724.119 68.1719 724.763 68.0952C725.577 68.0007 726.238 67.924 726.745 67.865C727.253 67.8001 727.622 67.6968 727.852 67.5552C728.082 67.4135 728.197 67.1834 728.197 66.8647V66.8028C728.197 66.0297 727.979 65.4307 727.542 65.0058C727.111 64.5809 726.468 64.3685 725.612 64.3685C724.721 64.3685 724.019 64.5661 723.506 64.9615C722.998 65.351 722.647 65.7848 722.452 66.2628L719.965 65.6963C720.26 64.8701 720.691 64.2032 721.257 63.6957C721.83 63.1823 722.488 62.8105 723.231 62.5803C723.975 62.3443 724.757 62.2263 725.577 62.2263C726.12 62.2263 726.695 62.2912 727.303 62.421C727.917 62.5449 728.489 62.7751 729.02 63.1115C729.557 63.4478 729.997 63.9288 730.339 64.5543C730.682 65.174 730.853 65.9795 730.853 66.9709V76H728.268V74.1411H728.162C727.991 74.4834 727.734 74.8197 727.392 75.1502C727.049 75.4807 726.61 75.7551 726.073 75.9734C725.536 76.1918 724.892 76.301 724.143 76.301ZM724.718 74.1765C725.45 74.1765 726.076 74.0319 726.595 73.7427C727.12 73.4536 727.518 73.0759 727.79 72.6097C728.067 72.1376 728.206 71.633 728.206 71.096V69.3433C728.112 69.4377 727.929 69.5262 727.657 69.6088C727.392 69.6856 727.088 69.7534 726.745 69.8124C726.403 69.8656 726.07 69.9157 725.745 69.9629C725.421 70.0042 725.149 70.0396 724.931 70.0692C724.417 70.1341 723.948 70.2432 723.523 70.3967C723.104 70.5501 722.768 70.7714 722.514 71.0606C722.266 71.3438 722.142 71.7215 722.142 72.1936C722.142 72.8487 722.384 73.3444 722.868 73.6808C723.352 74.0112 723.969 74.1765 724.718 74.1765ZM744.567 65.7228L742.168 66.1477C742.067 65.8408 741.908 65.5487 741.69 65.2714C741.477 64.994 741.188 64.7668 740.822 64.5898C740.456 64.4127 739.999 64.3242 739.45 64.3242C738.701 64.3242 738.075 64.4924 737.574 64.8288C737.072 65.1592 736.821 65.5871 736.821 66.1123C736.821 66.5667 736.989 66.9326 737.326 67.2099C737.662 67.4873 738.205 67.7145 738.954 67.8916L741.114 68.3873C742.365 68.6764 743.298 69.122 743.912 69.7239C744.525 70.3259 744.832 71.1078 744.832 72.0697C744.832 72.8841 744.596 73.61 744.124 74.2473C743.658 74.8787 743.006 75.3745 742.168 75.7344C741.336 76.0944 740.371 76.2744 739.273 76.2744C737.751 76.2744 736.508 75.9498 735.546 75.3007C734.585 74.6456 733.994 73.7162 733.776 72.5123L736.334 72.1228C736.494 72.7897 736.821 73.2942 737.317 73.6365C737.813 73.9729 738.459 74.1411 739.255 74.1411C740.123 74.1411 740.816 73.9611 741.336 73.6011C741.855 73.2352 742.115 72.7897 742.115 72.2644C742.115 71.8396 741.955 71.4825 741.637 71.1934C741.324 70.9042 740.843 70.6858 740.194 70.5383L737.892 70.0337C736.623 69.7446 735.685 69.2843 735.077 68.6528C734.475 68.0214 734.174 67.2218 734.174 66.2539C734.174 65.4513 734.399 64.7491 734.847 64.1472C735.296 63.5452 735.915 63.0761 736.706 62.7397C737.497 62.3974 738.403 62.2263 739.424 62.2263C740.893 62.2263 742.05 62.5449 742.894 63.1823C743.738 63.8137 744.295 64.6606 744.567 65.7228ZM753.602 76.2744C752.263 76.2744 751.109 75.9882 750.141 75.4158C749.179 74.8374 748.436 74.026 747.911 72.9815C747.391 71.931 747.132 70.7006 747.132 69.2902C747.132 67.8975 747.391 66.67 747.911 65.6077C748.436 64.5455 749.168 63.7164 750.106 63.1203C751.05 62.5243 752.154 62.2263 753.416 62.2263C754.184 62.2263 754.927 62.3531 755.647 62.6069C756.367 62.8607 757.013 63.259 757.586 63.8019C758.158 64.3448 758.61 65.0501 758.94 65.9176C759.271 66.7792 759.436 67.8266 759.436 69.06V69.9983H748.628V68.0155H756.842C756.842 67.3191 756.701 66.7024 756.417 66.1654C756.134 65.6225 755.736 65.1946 755.222 64.8819C754.715 64.5691 754.119 64.4127 753.434 64.4127C752.691 64.4127 752.041 64.5957 751.487 64.9615C750.938 65.3215 750.513 65.7936 750.212 66.3779C749.917 66.9562 749.769 67.5847 749.769 68.2633V69.8124C749.769 70.7212 749.929 71.4943 750.247 72.1317C750.572 72.769 751.023 73.2559 751.602 73.5923C752.18 73.9227 752.856 74.088 753.629 74.088C754.131 74.088 754.588 74.0171 755.001 73.8755C755.414 73.728 755.771 73.5096 756.072 73.2205C756.373 72.9313 756.603 72.5743 756.763 72.1494L759.268 72.6008C759.067 73.3385 758.707 73.9847 758.188 74.5394C757.674 75.0882 757.028 75.5161 756.249 75.823C755.476 76.1239 754.594 76.2744 753.602 76.2744ZM767.462 76.2656C766.365 76.2656 765.385 75.9852 764.524 75.4246C763.668 74.8581 762.995 74.0526 762.505 73.008C762.021 71.9576 761.779 70.6976 761.779 69.2282C761.779 67.7588 762.024 66.5018 762.514 65.4573C763.01 64.4127 763.689 63.6131 764.55 63.0584C765.412 62.5036 766.388 62.2263 767.48 62.2263C768.324 62.2263 769.003 62.3679 769.516 62.6512C770.035 62.9285 770.437 63.2531 770.72 63.6249C771.009 63.9967 771.233 64.3242 771.393 64.6075H771.552V57.8711H774.199V76H771.614V73.8844H771.393C771.233 74.1735 771.003 74.504 770.702 74.8758C770.407 75.2476 770 75.5722 769.481 75.8495C768.961 76.1269 768.289 76.2656 767.462 76.2656ZM768.047 74.0083C768.808 74.0083 769.451 73.8077 769.976 73.4064C770.508 72.9992 770.909 72.4356 771.18 71.7156C771.458 70.9957 771.596 70.1577 771.596 69.2017C771.596 68.2574 771.461 67.4312 771.189 66.7231C770.918 66.0149 770.519 65.4632 769.994 65.0678C769.469 64.6724 768.82 64.4747 768.047 64.4747C767.25 64.4747 766.586 64.6812 766.055 65.0943C765.524 65.5074 765.123 66.071 764.851 66.7851C764.586 67.4991 764.453 68.3046 764.453 69.2017C764.453 70.1105 764.588 70.9278 764.86 71.6537C765.131 72.3795 765.533 72.9549 766.064 73.3798C766.601 73.7988 767.262 74.0083 768.047 74.0083Z" fill="#656D4A"/>
<path d="M218.155 212V193.869H220.35V210.052H228.778V212H218.155ZM237.419 212.283C236.191 212.283 235.114 211.991 234.188 211.407C233.267 210.823 232.547 210.005 232.027 208.955C231.514 207.904 231.257 206.676 231.257 205.272C231.257 203.855 231.514 202.619 232.027 201.562C232.547 200.506 233.267 199.686 234.188 199.101C235.114 198.517 236.191 198.225 237.419 198.225C238.646 198.225 239.721 198.517 240.641 199.101C241.568 199.686 242.288 200.506 242.801 201.562C243.321 202.619 243.581 203.855 243.581 205.272C243.581 206.676 243.321 207.904 242.801 208.955C242.288 210.005 241.568 210.823 240.641 211.407C239.721 211.991 238.646 212.283 237.419 212.283ZM237.419 210.406C238.351 210.406 239.119 210.167 239.721 209.689C240.323 209.211 240.768 208.583 241.057 207.804C241.347 207.025 241.491 206.181 241.491 205.272C241.491 204.363 241.347 203.516 241.057 202.731C240.768 201.946 240.323 201.311 239.721 200.828C239.119 200.344 238.351 200.102 237.419 200.102C236.486 200.102 235.719 200.344 235.117 200.828C234.515 201.311 234.069 201.946 233.78 202.731C233.491 203.516 233.346 204.363 233.346 205.272C233.346 206.181 233.491 207.025 233.78 207.804C234.069 208.583 234.515 209.211 235.117 209.689C235.719 210.167 236.486 210.406 237.419 210.406ZM249.388 212L245.245 198.402H247.44L250.38 208.813H250.521L253.425 198.402H255.656L258.524 208.778H258.666L261.605 198.402H263.801L259.658 212H257.604L254.629 201.553H254.417L251.442 212H249.388ZM274.354 203.253V205.201H266.421V203.253H274.354ZM283.554 212.283C282.279 212.283 281.181 211.982 280.261 211.38C279.34 210.778 278.632 209.949 278.136 208.893C277.64 207.836 277.392 206.629 277.392 205.272C277.392 203.891 277.646 202.672 278.154 201.615C278.667 200.553 279.381 199.724 280.296 199.128C281.217 198.526 282.291 198.225 283.519 198.225C284.475 198.225 285.336 198.402 286.104 198.756C286.871 199.11 287.499 199.606 287.989 200.243C288.479 200.881 288.783 201.624 288.901 202.474H286.812C286.653 201.854 286.298 201.306 285.75 200.828C285.207 200.344 284.475 200.102 283.554 200.102C282.74 200.102 282.025 200.314 281.412 200.739C280.804 201.158 280.329 201.751 279.986 202.518C279.65 203.28 279.482 204.174 279.482 205.201C279.482 206.251 279.647 207.166 279.977 207.945C280.314 208.724 280.786 209.329 281.394 209.76C282.008 210.191 282.728 210.406 283.554 210.406C284.097 210.406 284.59 210.312 285.032 210.123C285.475 209.934 285.85 209.663 286.157 209.309C286.464 208.955 286.682 208.53 286.812 208.034H288.901C288.783 208.837 288.491 209.56 288.025 210.203C287.564 210.84 286.954 211.348 286.192 211.726C285.437 212.097 284.557 212.283 283.554 212.283ZM297.48 212.283C296.252 212.283 295.175 211.991 294.248 211.407C293.328 210.823 292.608 210.005 292.088 208.955C291.575 207.904 291.318 206.676 291.318 205.272C291.318 203.855 291.575 202.619 292.088 201.562C292.608 200.506 293.328 199.686 294.248 199.101C295.175 198.517 296.252 198.225 297.48 198.225C298.707 198.225 299.781 198.517 300.702 199.101C301.629 199.686 302.349 200.506 302.862 201.562C303.382 202.619 303.641 203.855 303.641 205.272C303.641 206.676 303.382 207.904 302.862 208.955C302.349 210.005 301.629 210.823 300.702 211.407C299.781 211.991 298.707 212.283 297.48 212.283ZM297.48 210.406C298.412 210.406 299.179 210.167 299.781 209.689C300.383 209.211 300.829 208.583 301.118 207.804C301.407 207.025 301.552 206.181 301.552 205.272C301.552 204.363 301.407 203.516 301.118 202.731C300.829 201.946 300.383 201.311 299.781 200.828C299.179 200.344 298.412 200.102 297.48 200.102C296.547 200.102 295.78 200.344 295.178 200.828C294.576 201.311 294.13 201.946 293.841 202.731C293.552 203.516 293.407 204.363 293.407 205.272C293.407 206.181 293.552 207.025 293.841 207.804C294.13 208.583 294.576 209.211 295.178 209.689C295.78 210.167 296.547 210.406 297.48 210.406ZM316.463 201.447L314.586 201.978C314.468 201.666 314.294 201.362 314.064 201.067C313.839 200.766 313.532 200.518 313.143 200.323C312.753 200.128 312.255 200.031 311.647 200.031C310.815 200.031 310.121 200.223 309.566 200.606C309.017 200.984 308.743 201.465 308.743 202.049C308.743 202.569 308.932 202.979 309.31 203.28C309.687 203.581 310.277 203.832 311.08 204.032L313.099 204.528C314.314 204.823 315.22 205.275 315.816 205.883C316.413 206.485 316.711 207.261 316.711 208.211C316.711 208.99 316.486 209.686 316.038 210.3C315.595 210.914 314.975 211.398 314.179 211.752C313.382 212.106 312.455 212.283 311.399 212.283C310.012 212.283 308.864 211.982 307.955 211.38C307.046 210.778 306.471 209.899 306.229 208.742L308.212 208.246C308.401 208.978 308.758 209.527 309.283 209.893C309.814 210.259 310.508 210.442 311.363 210.442C312.337 210.442 313.11 210.235 313.683 209.822C314.261 209.403 314.551 208.901 314.551 208.317C314.551 207.845 314.385 207.45 314.055 207.131C313.724 206.806 313.217 206.564 312.532 206.405L310.266 205.874C309.02 205.579 308.106 205.121 307.521 204.502C306.943 203.876 306.654 203.094 306.654 202.155C306.654 201.388 306.869 200.709 307.3 200.119C307.737 199.529 308.33 199.066 309.079 198.729C309.835 198.393 310.691 198.225 311.647 198.225C312.992 198.225 314.049 198.52 314.816 199.11C315.589 199.7 316.138 200.479 316.463 201.447ZM325.769 198.402V200.172H318.722V198.402H325.769ZM320.776 195.144H322.866V208.105C322.866 208.695 322.951 209.138 323.122 209.433C323.299 209.722 323.524 209.917 323.795 210.017C324.073 210.111 324.365 210.159 324.672 210.159C324.902 210.159 325.091 210.147 325.238 210.123C325.386 210.094 325.504 210.07 325.592 210.052L326.017 211.929C325.876 211.982 325.678 212.035 325.424 212.089C325.17 212.148 324.849 212.177 324.459 212.177C323.869 212.177 323.291 212.05 322.724 211.796C322.163 211.543 321.697 211.156 321.325 210.637C320.959 210.117 320.776 209.462 320.776 208.671V195.144Z" fill="#656D4A"/>
<path d="M188.534 277.16V259.031H194.659C196.076 259.031 197.238 259.273 198.147 259.757C199.056 260.235 199.729 260.893 200.165 261.731C200.602 262.569 200.82 263.522 200.82 264.59C200.82 265.658 200.602 266.605 200.165 267.431C199.729 268.257 199.059 268.907 198.156 269.379C197.253 269.845 196.099 270.078 194.695 270.078H189.738V268.095H194.624C195.592 268.095 196.371 267.954 196.961 267.67C197.557 267.387 197.988 266.986 198.253 266.466C198.525 265.941 198.66 265.316 198.66 264.59C198.66 263.864 198.525 263.23 198.253 262.687C197.982 262.144 197.548 261.725 196.952 261.43C196.356 261.129 195.568 260.978 194.589 260.978H190.729V277.16H188.534ZM197.067 269.016L201.529 277.16H198.979L194.589 269.016H197.067ZM209.75 277.443C208.44 277.443 207.31 277.154 206.36 276.575C205.415 275.991 204.686 275.177 204.173 274.132C203.666 273.082 203.412 271.86 203.412 270.468C203.412 269.075 203.666 267.847 204.173 266.785C204.686 265.717 205.401 264.885 206.315 264.289C207.236 263.687 208.31 263.386 209.537 263.386C210.246 263.386 210.945 263.504 211.635 263.74C212.326 263.976 212.954 264.36 213.521 264.891C214.087 265.416 214.539 266.112 214.875 266.98C215.212 267.847 215.38 268.915 215.38 270.184V271.069H204.899V269.264H213.255C213.255 268.496 213.102 267.812 212.795 267.21C212.494 266.608 212.063 266.133 211.503 265.785C210.948 265.437 210.293 265.263 209.537 265.263C208.705 265.263 207.985 265.469 207.377 265.882C206.776 266.289 206.312 266.821 205.988 267.476C205.663 268.131 205.501 268.833 205.501 269.582V270.786C205.501 271.813 205.678 272.683 206.032 273.398C206.392 274.106 206.891 274.646 207.528 275.017C208.165 275.383 208.906 275.566 209.75 275.566C210.299 275.566 210.794 275.49 211.237 275.336C211.685 275.177 212.072 274.941 212.397 274.628C212.721 274.309 212.972 273.914 213.149 273.442L215.167 274.008C214.955 274.693 214.598 275.295 214.096 275.814C213.595 276.328 212.975 276.729 212.237 277.018C211.5 277.301 210.67 277.443 209.75 277.443ZM228.189 266.608L226.312 267.139C226.194 266.826 226.02 266.522 225.79 266.227C225.565 265.926 225.259 265.679 224.869 265.484C224.48 265.289 223.981 265.192 223.373 265.192C222.541 265.192 221.848 265.384 221.293 265.767C220.744 266.145 220.47 266.626 220.47 267.21C220.47 267.729 220.658 268.139 221.036 268.44C221.414 268.741 222.004 268.992 222.807 269.193L224.825 269.689C226.04 269.984 226.946 270.435 227.542 271.043C228.138 271.645 228.436 272.421 228.436 273.371C228.436 274.15 228.212 274.846 227.764 275.46C227.321 276.074 226.701 276.558 225.905 276.912C225.108 277.266 224.182 277.443 223.125 277.443C221.738 277.443 220.591 277.142 219.682 276.54C218.773 275.938 218.198 275.059 217.956 273.902L219.939 273.406C220.127 274.138 220.484 274.687 221.01 275.053C221.541 275.419 222.234 275.602 223.09 275.602C224.064 275.602 224.837 275.395 225.409 274.982C225.987 274.563 226.277 274.061 226.277 273.477C226.277 273.005 226.111 272.61 225.781 272.291C225.45 271.966 224.943 271.725 224.258 271.565L221.992 271.034C220.747 270.739 219.832 270.282 219.248 269.662C218.67 269.036 218.381 268.255 218.381 267.316C218.381 266.549 218.596 265.87 219.027 265.28C219.463 264.69 220.057 264.227 220.806 263.89C221.561 263.554 222.417 263.386 223.373 263.386C224.719 263.386 225.775 263.681 226.542 264.271C227.315 264.861 227.864 265.64 228.189 266.608ZM237.105 277.443C235.877 277.443 234.8 277.151 233.874 276.567C232.953 275.982 232.233 275.165 231.714 274.115C231.2 273.064 230.944 271.837 230.944 270.432C230.944 269.016 231.2 267.779 231.714 266.723C232.233 265.667 232.953 264.847 233.874 264.262C234.8 263.678 235.877 263.386 237.105 263.386C238.332 263.386 239.406 263.678 240.327 264.262C241.253 264.847 241.973 265.667 242.487 266.723C243.006 267.779 243.266 269.016 243.266 270.432C243.266 271.837 243.006 273.064 242.487 274.115C241.973 275.165 241.253 275.982 240.327 276.567C239.406 277.151 238.332 277.443 237.105 277.443ZM237.105 275.566C238.037 275.566 238.804 275.327 239.406 274.849C240.008 274.371 240.454 273.743 240.743 272.964C241.032 272.185 241.177 271.341 241.177 270.432C241.177 269.523 241.032 268.676 240.743 267.892C240.454 267.107 240.008 266.472 239.406 265.988C238.804 265.505 238.037 265.263 237.105 265.263C236.172 265.263 235.405 265.505 234.803 265.988C234.201 266.472 233.756 267.107 233.467 267.892C233.177 268.676 233.033 269.523 233.033 270.432C233.033 271.341 233.177 272.185 233.467 272.964C233.756 273.743 234.201 274.371 234.803 274.849C235.405 275.327 236.172 275.566 237.105 275.566ZM255.023 271.601V263.563H257.113V277.16H255.023V274.858H254.882C254.563 275.549 254.067 276.136 253.395 276.62C252.722 277.098 251.872 277.337 250.845 277.337C249.996 277.337 249.24 277.151 248.579 276.779C247.918 276.401 247.399 275.835 247.021 275.079C246.644 274.318 246.455 273.359 246.455 272.203V263.563H248.544V272.061C248.544 273.052 248.821 273.843 249.376 274.433C249.937 275.023 250.651 275.318 251.518 275.318C252.037 275.318 252.566 275.186 253.103 274.92C253.646 274.655 254.1 274.247 254.466 273.699C254.838 273.15 255.023 272.45 255.023 271.601ZM260.939 277.16V263.563H262.957V265.617H263.099C263.347 264.944 263.795 264.398 264.444 263.979C265.093 263.56 265.825 263.351 266.64 263.351C266.793 263.351 266.985 263.353 267.215 263.359C267.445 263.365 267.619 263.374 267.737 263.386V265.51C267.666 265.493 267.504 265.466 267.25 265.431C267.002 265.389 266.74 265.369 266.462 265.369C265.802 265.369 265.211 265.507 264.692 265.785C264.179 266.056 263.771 266.434 263.471 266.918C263.175 267.396 263.028 267.942 263.028 268.556V277.16H260.939ZM275.323 277.443C274.049 277.443 272.951 277.142 272.03 276.54C271.11 275.938 270.402 275.109 269.906 274.053C269.41 272.996 269.162 271.789 269.162 270.432C269.162 269.051 269.416 267.833 269.924 266.776C270.437 265.714 271.151 264.885 272.066 264.289C272.986 263.687 274.06 263.386 275.288 263.386C276.244 263.386 277.106 263.563 277.873 263.917C278.64 264.271 279.268 264.767 279.758 265.404C280.248 266.042 280.552 266.785 280.67 267.635H278.581C278.422 267.015 278.067 266.466 277.519 265.988C276.976 265.505 276.244 265.263 275.323 265.263C274.509 265.263 273.795 265.475 273.181 265.9C272.573 266.319 272.098 266.912 271.756 267.679C271.42 268.44 271.251 269.334 271.251 270.361C271.251 271.412 271.417 272.326 271.747 273.105C272.084 273.884 272.556 274.489 273.163 274.92C273.777 275.351 274.497 275.566 275.323 275.566C275.866 275.566 276.359 275.472 276.802 275.283C277.244 275.094 277.619 274.823 277.926 274.469C278.233 274.115 278.451 273.69 278.581 273.194H280.67C280.552 273.997 280.26 274.719 279.794 275.363C279.333 276 278.723 276.508 277.961 276.885C277.206 277.257 276.327 277.443 275.323 277.443ZM289.425 277.443C288.115 277.443 286.984 277.154 286.034 276.575C285.09 275.991 284.361 275.177 283.848 274.132C283.34 273.082 283.087 271.86 283.087 270.468C283.087 269.075 283.34 267.847 283.848 266.785C284.361 265.717 285.075 264.885 285.99 264.289C286.911 263.687 287.985 263.386 289.212 263.386C289.92 263.386 290.62 263.504 291.31 263.74C292.001 263.976 292.629 264.36 293.196 264.891C293.762 265.416 294.214 266.112 294.55 266.98C294.886 267.847 295.054 268.915 295.054 270.184V271.069H284.574V269.264H292.93C292.93 268.496 292.777 267.812 292.47 267.21C292.169 266.608 291.738 266.133 291.177 265.785C290.623 265.437 289.968 265.263 289.212 265.263C288.38 265.263 287.66 265.469 287.052 265.882C286.45 266.289 285.987 266.821 285.663 267.476C285.338 268.131 285.176 268.833 285.176 269.582V270.786C285.176 271.813 285.353 272.683 285.707 273.398C286.067 274.106 286.565 274.646 287.203 275.017C287.84 275.383 288.581 275.566 289.425 275.566C289.973 275.566 290.469 275.49 290.912 275.336C291.36 275.177 291.747 274.941 292.071 274.628C292.396 274.309 292.647 273.914 292.824 273.442L294.842 274.008C294.63 274.693 294.273 275.295 293.771 275.814C293.269 276.328 292.65 276.729 291.912 277.018C291.174 277.301 290.345 277.443 289.425 277.443ZM304.287 263.563V265.333H296.958V263.563H304.287ZM299.153 277.16V261.686C299.153 260.907 299.336 260.258 299.702 259.739C300.068 259.22 300.543 258.83 301.127 258.57C301.711 258.311 302.328 258.181 302.977 258.181C303.49 258.181 303.909 258.222 304.234 258.305C304.559 258.387 304.801 258.464 304.96 258.535L304.358 260.341C304.252 260.305 304.104 260.261 303.915 260.208C303.732 260.155 303.49 260.128 303.189 260.128C302.499 260.128 302 260.302 301.694 260.651C301.393 260.999 301.242 261.509 301.242 262.182V277.16H299.153ZM315.784 271.601V263.563H317.873V277.16H315.784V274.858H315.642C315.323 275.549 314.828 276.136 314.155 276.62C313.482 277.098 312.632 277.337 311.606 277.337C310.756 277.337 310 277.151 309.339 276.779C308.678 276.401 308.159 275.835 307.781 275.079C307.404 274.318 307.215 273.359 307.215 272.203V263.563H309.304V272.061C309.304 273.052 309.581 273.843 310.136 274.433C310.697 275.023 311.411 275.318 312.278 275.318C312.798 275.318 313.326 275.186 313.863 274.92C314.406 274.655 314.86 274.247 315.226 273.699C315.598 273.15 315.784 272.45 315.784 271.601ZM323.788 259.031V277.16H321.699V259.031H323.788Z" fill="#656D4A"/>
<path d="M235.808 345.826V327.697H241.934C243.35 327.697 244.512 327.939 245.421 328.423C246.33 328.901 247.003 329.559 247.44 330.397C247.876 331.235 248.095 332.188 248.095 333.256C248.095 334.324 247.876 335.271 247.44 336.097C247.003 336.924 246.333 337.573 245.43 338.045C244.527 338.511 243.373 338.744 241.969 338.744H237.012V336.761H241.898C242.866 336.761 243.645 336.62 244.235 336.336C244.831 336.053 245.262 335.652 245.527 335.132C245.799 334.607 245.935 333.982 245.935 333.256C245.935 332.53 245.799 331.896 245.527 331.353C245.256 330.81 244.822 330.391 244.226 330.096C243.63 329.795 242.842 329.644 241.863 329.644H238.003V345.826H235.808ZM244.341 337.682L248.803 345.826H246.253L241.863 337.682H244.341ZM257.024 346.109C255.714 346.109 254.584 345.82 253.634 345.241C252.689 344.657 251.961 343.843 251.447 342.798C250.94 341.748 250.686 340.526 250.686 339.134C250.686 337.741 250.94 336.513 251.447 335.451C251.961 334.383 252.675 333.551 253.589 332.955C254.51 332.353 255.584 332.052 256.812 332.052C257.52 332.052 258.219 332.17 258.909 332.406C259.6 332.642 260.228 333.026 260.795 333.557C261.362 334.082 261.813 334.778 262.149 335.646C262.486 336.513 262.654 337.582 262.654 338.85V339.735H252.173V337.93H260.529C260.529 337.163 260.376 336.478 260.069 335.876C259.768 335.274 259.337 334.799 258.777 334.451C258.222 334.103 257.567 333.929 256.812 333.929C255.979 333.929 255.26 334.135 254.652 334.548C254.05 334.955 253.586 335.487 253.262 336.142C252.937 336.797 252.775 337.499 252.775 338.248V339.452C252.775 340.479 252.952 341.35 253.306 342.064C253.666 342.772 254.165 343.312 254.802 343.683C255.44 344.049 256.18 344.232 257.024 344.232C257.573 344.232 258.069 344.156 258.511 344.002C258.96 343.843 259.346 343.607 259.671 343.294C259.995 342.975 260.246 342.58 260.423 342.108L262.441 342.674C262.229 343.359 261.872 343.961 261.37 344.48C260.869 344.994 260.249 345.395 259.511 345.684C258.774 345.967 257.945 346.109 257.024 346.109ZM267.921 327.697V345.826H265.832V327.697H267.921ZM271.747 345.826V332.229H273.836V345.826H271.747ZM272.809 329.963C272.402 329.963 272.051 329.824 271.756 329.547C271.467 329.269 271.322 328.936 271.322 328.547C271.322 328.157 271.467 327.824 271.756 327.546C272.051 327.269 272.402 327.13 272.809 327.13C273.217 327.13 273.565 327.269 273.854 327.546C274.149 327.824 274.297 328.157 274.297 328.547C274.297 328.936 274.149 329.269 273.854 329.547C273.565 329.824 273.217 329.963 272.809 329.963ZM281.664 346.144C280.802 346.144 280.02 345.982 279.318 345.657C278.616 345.327 278.058 344.852 277.645 344.232C277.232 343.607 277.025 342.851 277.025 341.966C277.025 341.187 277.179 340.556 277.485 340.072C277.792 339.582 278.202 339.198 278.716 338.921C279.229 338.644 279.796 338.437 280.415 338.301C281.041 338.16 281.67 338.048 282.301 337.965C283.127 337.859 283.797 337.779 284.31 337.726C284.83 337.667 285.207 337.57 285.443 337.434C285.685 337.298 285.806 337.062 285.806 336.726V336.655C285.806 335.782 285.567 335.103 285.089 334.619C284.617 334.135 283.9 333.893 282.938 333.893C281.941 333.893 281.159 334.112 280.593 334.548C280.026 334.985 279.628 335.451 279.397 335.947L277.415 335.239C277.769 334.412 278.241 333.769 278.831 333.309C279.427 332.843 280.076 332.518 280.778 332.335C281.487 332.146 282.183 332.052 282.867 332.052C283.304 332.052 283.806 332.105 284.372 332.211C284.945 332.312 285.497 332.521 286.028 332.84C286.565 333.158 287.01 333.639 287.364 334.283C287.718 334.926 287.895 335.787 287.895 336.867V345.826H285.806V343.984H285.7C285.558 344.28 285.322 344.595 284.992 344.932C284.661 345.268 284.222 345.554 283.673 345.79C283.124 346.026 282.454 346.144 281.664 346.144ZM281.982 344.268C282.808 344.268 283.505 344.105 284.071 343.781C284.644 343.456 285.075 343.037 285.364 342.524C285.659 342.01 285.806 341.47 285.806 340.904V338.992C285.718 339.098 285.523 339.196 285.222 339.284C284.927 339.367 284.585 339.44 284.195 339.505C283.812 339.564 283.437 339.617 283.071 339.665C282.711 339.706 282.419 339.741 282.195 339.771C281.652 339.842 281.144 339.957 280.672 340.116C280.206 340.27 279.828 340.503 279.539 340.815C279.256 341.122 279.114 341.541 279.114 342.072C279.114 342.798 279.383 343.347 279.92 343.719C280.463 344.085 281.15 344.268 281.982 344.268ZM291.992 345.826V327.697H294.081V334.389H294.258C294.411 334.153 294.624 333.852 294.895 333.486C295.173 333.114 295.568 332.784 296.081 332.495C296.601 332.199 297.303 332.052 298.188 332.052C299.333 332.052 300.342 332.338 301.215 332.911C302.089 333.483 302.77 334.294 303.26 335.345C303.75 336.395 303.995 337.635 303.995 339.063C303.995 340.503 303.75 341.751 303.26 342.807C302.77 343.858 302.092 344.672 301.224 345.25C300.357 345.823 299.357 346.109 298.224 346.109C297.35 346.109 296.651 345.964 296.126 345.675C295.6 345.38 295.196 345.047 294.913 344.675C294.63 344.297 294.411 343.984 294.258 343.737H294.01V345.826H291.992ZM294.045 339.027C294.045 340.054 294.196 340.96 294.497 341.745C294.798 342.524 295.237 343.135 295.816 343.577C296.394 344.014 297.102 344.232 297.94 344.232C298.814 344.232 299.542 344.002 300.127 343.542C300.717 343.076 301.159 342.45 301.454 341.665C301.755 340.874 301.906 339.995 301.906 339.027C301.906 338.071 301.758 337.21 301.463 336.443C301.174 335.669 300.735 335.059 300.144 334.61C299.56 334.156 298.825 333.929 297.94 333.929C297.09 333.929 296.376 334.144 295.798 334.575C295.22 335 294.783 335.596 294.488 336.363C294.193 337.124 294.045 338.012 294.045 339.027ZM309.28 327.697V345.826H307.191V327.697H309.28ZM318.807 346.109C317.497 346.109 316.366 345.82 315.416 345.241C314.472 344.657 313.743 343.843 313.23 342.798C312.722 341.748 312.469 340.526 312.469 339.134C312.469 337.741 312.722 336.513 313.23 335.451C313.743 334.383 314.457 333.551 315.372 332.955C316.293 332.353 317.367 332.052 318.594 332.052C319.302 332.052 320.002 332.17 320.692 332.406C321.383 332.642 322.011 333.026 322.578 333.557C323.144 334.082 323.596 334.778 323.932 335.646C324.268 336.513 324.437 337.582 324.437 338.85V339.735H313.956V337.93H322.312C322.312 337.163 322.159 336.478 321.852 335.876C321.551 335.274 321.12 334.799 320.559 334.451C320.005 334.103 319.35 333.929 318.594 333.929C317.762 333.929 317.042 334.135 316.434 334.548C315.832 334.955 315.369 335.487 315.045 336.142C314.72 336.797 314.558 337.499 314.558 338.248V339.452C314.558 340.479 314.735 341.35 315.089 342.064C315.449 342.772 315.947 343.312 316.585 343.683C317.222 344.049 317.963 344.232 318.807 344.232C319.355 344.232 319.851 344.156 320.294 344.002C320.742 343.843 321.129 343.607 321.453 343.294C321.778 342.975 322.029 342.58 322.206 342.108L324.224 342.674C324.012 343.359 323.655 343.961 323.153 344.48C322.651 344.994 322.032 345.395 321.294 345.684C320.556 345.967 319.727 346.109 318.807 346.109Z" fill="#656D4A"/>
<path d="M176.637 398.933C176.53 398.036 176.1 397.34 175.344 396.844C174.589 396.349 173.662 396.101 172.565 396.101C171.762 396.101 171.06 396.231 170.458 396.49C169.862 396.75 169.396 397.107 169.059 397.561C168.729 398.016 168.564 398.532 168.564 399.11C168.564 399.594 168.679 400.01 168.909 400.359C169.145 400.701 169.446 400.987 169.812 401.217C170.178 401.441 170.561 401.627 170.963 401.775C171.364 401.916 171.733 402.032 172.069 402.12L173.91 402.616C174.382 402.74 174.908 402.911 175.486 403.129C176.07 403.348 176.628 403.646 177.159 404.023C177.696 404.395 178.139 404.873 178.487 405.457C178.835 406.042 179.009 406.759 179.009 407.608C179.009 408.588 178.752 409.473 178.239 410.264C177.731 411.055 176.988 411.683 176.008 412.149C175.034 412.616 173.851 412.849 172.459 412.849C171.16 412.849 170.036 412.639 169.086 412.22C168.142 411.801 167.398 411.217 166.855 410.468C166.318 409.718 166.014 408.848 165.943 407.856H168.21C168.269 408.541 168.499 409.107 168.9 409.556C169.307 409.998 169.821 410.329 170.44 410.547C171.066 410.76 171.739 410.866 172.459 410.866C173.297 410.866 174.049 410.73 174.716 410.459C175.383 410.181 175.911 409.798 176.3 409.308C176.69 408.812 176.885 408.234 176.885 407.573C176.885 406.971 176.716 406.481 176.38 406.103C176.044 405.726 175.601 405.419 175.052 405.183C174.503 404.947 173.91 404.74 173.273 404.563L171.042 403.926C169.626 403.519 168.505 402.937 167.678 402.182C166.852 401.427 166.439 400.438 166.439 399.217C166.439 398.202 166.714 397.316 167.262 396.561C167.817 395.8 168.561 395.21 169.493 394.791C170.431 394.366 171.479 394.153 172.636 394.153C173.804 394.153 174.843 394.363 175.751 394.782C176.66 395.195 177.38 395.761 177.911 396.481C178.448 397.201 178.732 398.019 178.761 398.933H176.637ZM182.335 417.629V398.933H184.353V401.093H184.601C184.755 400.857 184.967 400.556 185.239 400.19C185.516 399.819 185.911 399.488 186.425 399.199C186.944 398.904 187.646 398.756 188.532 398.756C189.676 398.756 190.686 399.043 191.559 399.615C192.432 400.187 193.114 400.999 193.604 402.049C194.094 403.1 194.338 404.339 194.338 405.767C194.338 407.207 194.094 408.455 193.604 409.511C193.114 410.562 192.435 411.376 191.568 411.955C190.7 412.527 189.7 412.813 188.567 412.813C187.694 412.813 186.994 412.669 186.469 412.38C185.944 412.084 185.54 411.751 185.256 411.379C184.973 411.002 184.755 410.689 184.601 410.441H184.424V417.629H182.335ZM184.389 405.732C184.389 406.759 184.539 407.664 184.84 408.449C185.141 409.228 185.581 409.839 186.159 410.282C186.738 410.718 187.446 410.937 188.284 410.937C189.157 410.937 189.886 410.707 190.47 410.246C191.06 409.78 191.503 409.154 191.798 408.37C192.099 407.579 192.249 406.7 192.249 405.732C192.249 404.776 192.102 403.914 191.807 403.147C191.518 402.374 191.078 401.763 190.488 401.315C189.904 400.86 189.169 400.633 188.284 400.633C187.434 400.633 186.72 400.848 186.142 401.279C185.563 401.704 185.126 402.3 184.831 403.067C184.536 403.828 184.389 404.717 184.389 405.732ZM201.526 412.849C200.665 412.849 199.883 412.686 199.181 412.362C198.478 412.031 197.921 411.556 197.508 410.937C197.094 410.311 196.888 409.556 196.888 408.671C196.888 407.892 197.041 407.26 197.348 406.776C197.655 406.286 198.065 405.903 198.579 405.625C199.092 405.348 199.659 405.142 200.278 405.006C200.904 404.864 201.532 404.752 202.164 404.669C202.99 404.563 203.66 404.484 204.173 404.43C204.692 404.371 205.07 404.274 205.306 404.138C205.548 404.003 205.669 403.767 205.669 403.43V403.359C205.669 402.486 205.43 401.807 204.952 401.323C204.48 400.839 203.763 400.598 202.801 400.598C201.804 400.598 201.022 400.816 200.455 401.253C199.889 401.689 199.49 402.155 199.26 402.651L197.277 401.943C197.631 401.117 198.104 400.474 198.694 400.013C199.29 399.547 199.939 399.223 200.641 399.04C201.349 398.851 202.046 398.756 202.73 398.756C203.167 398.756 203.669 398.809 204.235 398.916C204.807 399.016 205.359 399.225 205.89 399.544C206.427 399.863 206.873 400.344 207.227 400.987C207.581 401.63 207.758 402.492 207.758 403.572V412.53H205.669V410.689H205.563C205.421 410.984 205.185 411.3 204.855 411.636C204.524 411.972 204.085 412.259 203.536 412.495C202.987 412.731 202.317 412.849 201.526 412.849ZM201.845 410.972C202.671 410.972 203.368 410.81 203.934 410.485C204.506 410.161 204.937 409.742 205.226 409.228C205.522 408.715 205.669 408.175 205.669 407.608V405.696C205.581 405.802 205.386 405.9 205.085 405.988C204.79 406.071 204.447 406.145 204.058 406.21C203.674 406.269 203.3 406.322 202.934 406.369C202.574 406.41 202.282 406.446 202.057 406.475C201.515 406.546 201.007 406.661 200.535 406.82C200.069 406.974 199.691 407.207 199.402 407.52C199.119 407.827 198.977 408.246 198.977 408.777C198.977 409.503 199.245 410.051 199.782 410.423C200.325 410.789 201.013 410.972 201.845 410.972ZM217.095 412.813C215.82 412.813 214.722 412.512 213.802 411.91C212.881 411.308 212.173 410.479 211.677 409.423C211.182 408.367 210.934 407.16 210.934 405.802C210.934 404.422 211.188 403.203 211.695 402.147C212.208 401.084 212.923 400.255 213.837 399.659C214.758 399.057 215.832 398.756 217.059 398.756C218.015 398.756 218.877 398.933 219.644 399.287C220.411 399.641 221.04 400.137 221.53 400.775C222.019 401.412 222.323 402.155 222.441 403.005H220.352C220.193 402.386 219.839 401.837 219.29 401.359C218.747 400.875 218.015 400.633 217.095 400.633C216.28 400.633 215.566 400.845 214.953 401.27C214.345 401.689 213.87 402.282 213.527 403.05C213.191 403.811 213.023 404.705 213.023 405.732C213.023 406.782 213.188 407.697 213.519 408.476C213.855 409.255 214.327 409.86 214.935 410.29C215.549 410.721 216.269 410.937 217.095 410.937C217.638 410.937 218.13 410.842 218.573 410.653C219.016 410.465 219.39 410.193 219.697 409.839C220.004 409.485 220.223 409.06 220.352 408.564H222.441C222.323 409.367 222.031 410.09 221.565 410.733C221.105 411.37 220.494 411.878 219.733 412.256C218.977 412.627 218.098 412.813 217.095 412.813ZM231.196 412.813C229.886 412.813 228.756 412.524 227.806 411.946C226.862 411.362 226.133 410.547 225.619 409.503C225.112 408.452 224.858 407.231 224.858 405.838C224.858 404.445 225.112 403.218 225.619 402.155C226.133 401.087 226.847 400.255 227.761 399.659C228.682 399.057 229.756 398.756 230.984 398.756C231.692 398.756 232.391 398.874 233.082 399.11C233.772 399.346 234.4 399.73 234.967 400.261C235.534 400.786 235.985 401.483 236.321 402.35C236.658 403.218 236.826 404.286 236.826 405.555V406.44H226.345V404.634H234.701C234.701 403.867 234.548 403.182 234.241 402.58C233.94 401.978 233.509 401.503 232.949 401.155C232.394 400.807 231.739 400.633 230.984 400.633C230.152 400.633 229.432 400.839 228.824 401.253C228.222 401.66 227.759 402.191 227.434 402.846C227.109 403.501 226.947 404.203 226.947 404.953V406.157C226.947 407.183 227.124 408.054 227.478 408.768C227.838 409.476 228.337 410.016 228.974 410.388C229.612 410.754 230.352 410.937 231.196 410.937C231.745 410.937 232.241 410.86 232.683 410.707C233.132 410.547 233.518 410.311 233.843 409.998C234.167 409.68 234.418 409.284 234.595 408.812L236.613 409.379C236.401 410.063 236.044 410.665 235.542 411.185C235.041 411.698 234.421 412.099 233.683 412.388C232.946 412.672 232.117 412.813 231.196 412.813ZM247.794 403.784V405.732H239.862V403.784H247.794ZM261.1 401.978L259.224 402.51C259.106 402.197 258.932 401.893 258.701 401.598C258.477 401.297 258.17 401.049 257.781 400.854C257.391 400.659 256.893 400.562 256.285 400.562C255.453 400.562 254.759 400.754 254.205 401.137C253.656 401.515 253.381 401.996 253.381 402.58C253.381 403.1 253.57 403.51 253.948 403.811C254.326 404.112 254.916 404.363 255.718 404.563L257.737 405.059C258.952 405.354 259.858 405.805 260.454 406.413C261.05 407.015 261.348 407.791 261.348 408.741C261.348 409.52 261.124 410.217 260.675 410.83C260.233 411.444 259.613 411.928 258.817 412.282C258.02 412.636 257.093 412.813 256.037 412.813C254.65 412.813 253.502 412.512 252.594 411.91C251.685 411.308 251.109 410.429 250.867 409.272L252.85 408.777C253.039 409.509 253.396 410.057 253.921 410.423C254.453 410.789 255.146 410.972 256.002 410.972C256.975 410.972 257.748 410.766 258.321 410.352C258.899 409.933 259.188 409.432 259.188 408.848C259.188 408.375 259.023 407.98 258.693 407.661C258.362 407.337 257.855 407.095 257.17 406.936L254.904 406.404C253.659 406.109 252.744 405.652 252.16 405.032C251.582 404.407 251.292 403.625 251.292 402.687C251.292 401.919 251.508 401.241 251.939 400.651C252.375 400.06 252.968 399.597 253.718 399.261C254.473 398.924 255.329 398.756 256.285 398.756C257.63 398.756 258.687 399.051 259.454 399.641C260.227 400.232 260.776 401.011 261.1 401.978ZM268.494 412.849C267.632 412.849 266.85 412.686 266.148 412.362C265.446 412.031 264.888 411.556 264.475 410.937C264.062 410.311 263.856 409.556 263.856 408.671C263.856 407.892 264.009 407.26 264.316 406.776C264.623 406.286 265.033 405.903 265.546 405.625C266.06 405.348 266.626 405.142 267.246 405.006C267.871 404.864 268.5 404.752 269.131 404.669C269.958 404.563 270.627 404.484 271.141 404.43C271.66 404.371 272.038 404.274 272.274 404.138C272.516 404.003 272.637 403.767 272.637 403.43V403.359C272.637 402.486 272.398 401.807 271.92 401.323C271.448 400.839 270.731 400.598 269.769 400.598C268.771 400.598 267.989 400.816 267.423 401.253C266.856 401.689 266.458 402.155 266.228 402.651L264.245 401.943C264.599 401.117 265.071 400.474 265.661 400.013C266.257 399.547 266.907 399.223 267.609 399.04C268.317 398.851 269.013 398.756 269.698 398.756C270.135 398.756 270.636 398.809 271.203 398.916C271.775 399.016 272.327 399.225 272.858 399.544C273.395 399.863 273.841 400.344 274.195 400.987C274.549 401.63 274.726 402.492 274.726 403.572V412.53H272.637V410.689H272.531C272.389 410.984 272.153 411.3 271.822 411.636C271.492 411.972 271.052 412.259 270.503 412.495C269.955 412.731 269.285 412.849 268.494 412.849ZM268.813 410.972C269.639 410.972 270.335 410.81 270.902 410.485C271.474 410.161 271.905 409.742 272.194 409.228C272.489 408.715 272.637 408.175 272.637 407.608V405.696C272.548 405.802 272.353 405.9 272.053 405.988C271.757 406.071 271.415 406.145 271.026 406.21C270.642 406.269 270.267 406.322 269.901 406.369C269.542 406.41 269.249 406.446 269.025 406.475C268.482 406.546 267.975 406.661 267.503 406.82C267.036 406.974 266.659 407.207 266.37 407.52C266.086 407.827 265.945 408.246 265.945 408.777C265.945 409.503 266.213 410.051 266.75 410.423C267.293 410.789 267.981 410.972 268.813 410.972ZM289.17 398.933L284.142 412.53H282.018L276.99 398.933H279.256L283.009 409.768H283.151L286.904 398.933H289.17ZM291.928 412.53V398.933H294.017V412.53H291.928ZM292.99 396.667C292.583 396.667 292.231 396.529 291.936 396.251C291.647 395.974 291.503 395.64 291.503 395.251C291.503 394.861 291.647 394.528 291.936 394.251C292.231 393.973 292.583 393.835 292.99 393.835C293.397 393.835 293.745 393.973 294.034 394.251C294.329 394.528 294.477 394.861 294.477 395.251C294.477 395.64 294.329 395.974 294.034 396.251C293.745 396.529 293.397 396.667 292.99 396.667ZM299.932 404.351V412.53H297.843V398.933H299.861V401.058H300.038C300.357 400.367 300.841 399.813 301.49 399.394C302.139 398.969 302.977 398.756 304.004 398.756C304.924 398.756 305.73 398.945 306.42 399.323C307.111 399.695 307.648 400.261 308.032 401.022C308.415 401.778 308.607 402.734 308.607 403.89V412.53H306.518V404.032C306.518 402.964 306.24 402.132 305.686 401.536C305.131 400.934 304.37 400.633 303.402 400.633C302.735 400.633 302.139 400.778 301.614 401.067C301.095 401.356 300.684 401.778 300.383 402.333C300.082 402.887 299.932 403.56 299.932 404.351ZM317.913 417.912C316.903 417.912 316.036 417.782 315.31 417.523C314.584 417.269 313.979 416.932 313.495 416.513C313.017 416.1 312.637 415.658 312.354 415.186L314.018 414.017C314.207 414.265 314.446 414.548 314.735 414.867C315.024 415.192 315.419 415.472 315.921 415.708C316.428 415.95 317.092 416.071 317.913 416.071C319.01 416.071 319.916 415.805 320.63 415.274C321.344 414.743 321.701 413.911 321.701 412.778V410.016H321.524C321.371 410.264 321.152 410.571 320.869 410.937C320.592 411.297 320.191 411.618 319.665 411.902C319.146 412.179 318.444 412.318 317.559 412.318C316.461 412.318 315.475 412.058 314.602 411.539C313.734 411.019 313.047 410.264 312.539 409.272C312.038 408.281 311.787 407.077 311.787 405.661C311.787 404.268 312.032 403.055 312.522 402.023C313.012 400.984 313.693 400.181 314.567 399.615C315.44 399.043 316.449 398.756 317.594 398.756C318.479 398.756 319.181 398.904 319.701 399.199C320.226 399.488 320.627 399.819 320.905 400.19C321.188 400.556 321.406 400.857 321.56 401.093H321.772V398.933H323.79V412.92C323.79 414.088 323.525 415.038 322.994 415.77C322.468 416.508 321.76 417.048 320.869 417.39C319.984 417.738 318.998 417.912 317.913 417.912ZM317.842 410.441C318.68 410.441 319.388 410.249 319.966 409.866C320.545 409.482 320.984 408.93 321.285 408.21C321.586 407.49 321.737 406.629 321.737 405.625C321.737 404.646 321.589 403.781 321.294 403.032C320.999 402.282 320.562 401.695 319.984 401.27C319.406 400.845 318.692 400.633 317.842 400.633C316.957 400.633 316.219 400.857 315.629 401.306C315.045 401.754 314.605 402.356 314.31 403.111C314.021 403.867 313.876 404.705 313.876 405.625C313.876 406.57 314.024 407.405 314.319 408.131C314.62 408.851 315.062 409.417 315.646 409.83C316.237 410.237 316.968 410.441 317.842 410.441Z" fill="#656D4A"/>
<path d="M397.311 132.485L414.968 150.142L449.301 115.809" stroke="white" stroke-width="4.15455"/>
<path d="M557.205 131.503L574.862 149.16L609.195 114.827" stroke="#A4AC86" stroke-width="4.15455"/>
<path d="M711.213 400.282L728.87 417.939L763.203 383.606" stroke="#A4AC86" stroke-width="4.15455"/>
<path d="M555.243 333.578L572.9 351.235L607.233 316.902" stroke="#A4AC86" stroke-width="4.15455"/>
<path d="M710.232 333.578L727.889 351.235L762.222 316.902" stroke="#A4AC86" stroke-width="4.15455"/>
<path d="M849.824 59H846.921L853.445 40.8711H856.605L863.129 59H860.226L855.1 44.164H854.959L849.824 59ZM850.311 51.9007H859.73V54.2022H850.311V51.9007ZM871.016 64.382C869.936 64.382 869.007 64.2404 868.228 63.9571C867.455 63.6739 866.823 63.2991 866.333 62.8329C865.844 62.3667 865.478 61.8563 865.236 61.3015L867.511 60.3632C867.67 60.6229 867.883 60.8973 868.148 61.1864C868.42 61.4815 868.785 61.7323 869.246 61.9389C869.712 62.1454 870.311 62.2487 871.043 62.2487C872.046 62.2487 872.875 62.0038 873.53 61.514C874.185 61.0301 874.513 60.257 874.513 59.1947V56.5214H874.345C874.185 56.8106 873.955 57.1322 873.654 57.4863C873.359 57.8404 872.952 58.1473 872.432 58.4069C871.913 58.6666 871.237 58.7964 870.405 58.7964C869.331 58.7964 868.364 58.5456 867.502 58.044C866.646 57.5365 865.968 56.7899 865.466 55.8044C864.97 54.813 864.722 53.5944 864.722 52.1485C864.722 50.7027 864.967 49.4634 865.457 48.4307C865.953 47.398 866.631 46.6072 867.493 46.0584C868.355 45.5036 869.331 45.2263 870.423 45.2263C871.267 45.2263 871.949 45.3679 872.468 45.6512C872.987 45.9285 873.391 46.2531 873.681 46.6249C873.976 46.9967 874.203 47.3242 874.362 47.6075H874.557V45.4033H877.151V59.301C877.151 60.4694 876.879 61.4284 876.336 62.1779C875.793 62.9273 875.059 63.4821 874.132 63.8421C873.211 64.202 872.173 64.382 871.016 64.382ZM870.99 56.6011C871.751 56.6011 872.394 56.4241 872.919 56.07C873.45 55.71 873.852 55.1966 874.123 54.5297C874.401 53.857 874.539 53.0514 874.539 52.1131C874.539 51.1984 874.404 50.3929 874.132 49.6965C873.861 49.0002 873.462 48.4573 872.937 48.0678C872.412 47.6724 871.763 47.4747 870.99 47.4747C870.193 47.4747 869.529 47.6812 868.998 48.0943C868.467 48.5015 868.065 49.0562 867.794 49.7585C867.528 50.4608 867.396 51.2456 867.396 52.1131C867.396 53.0042 867.531 53.7862 867.803 54.4589C868.074 55.1317 868.476 55.6569 869.007 56.0346C869.544 56.4123 870.205 56.6011 870.99 56.6011ZM880.7 59V45.4033H883.259V47.5632H883.4C883.648 46.8314 884.085 46.256 884.71 45.8371C885.342 45.4122 886.056 45.1997 886.852 45.1997C887.018 45.1997 887.212 45.2056 887.437 45.2174C887.667 45.2292 887.847 45.244 887.977 45.2617V47.7933C887.87 47.7638 887.682 47.7314 887.41 47.696C887.139 47.6547 886.867 47.634 886.596 47.634C885.97 47.634 885.412 47.7668 884.923 48.0324C884.439 48.292 884.055 48.6549 883.772 49.1212C883.489 49.5815 883.347 50.1067 883.347 50.6968V59H880.7ZM890.267 59V45.4033H892.914V59H890.267ZM891.604 43.3054C891.143 43.3054 890.748 43.1519 890.418 42.8451C890.093 42.5323 889.931 42.1605 889.931 41.7297C889.931 41.293 890.093 40.9212 890.418 40.6144C890.748 40.3016 891.143 40.1452 891.604 40.1452C892.064 40.1452 892.456 40.3016 892.781 40.6144C893.112 40.9212 893.277 41.293 893.277 41.7297C893.277 42.1605 893.112 42.5323 892.781 42.8451C892.456 43.1519 892.064 43.3054 891.604 43.3054ZM899.121 40.8711V59H896.475V40.8711H899.121ZM906.639 59.301C905.777 59.301 904.998 59.1416 904.302 58.823C903.606 58.4984 903.054 58.0292 902.647 57.4155C902.245 56.8017 902.045 56.0493 902.045 55.1582C902.045 54.3911 902.192 53.7596 902.487 53.2639C902.782 52.7682 903.181 52.3757 903.682 52.0866C904.184 51.7974 904.745 51.5791 905.364 51.4315C905.984 51.284 906.615 51.1719 907.259 51.0952C908.073 51.0007 908.734 50.924 909.241 50.865C909.749 50.8001 910.118 50.6968 910.348 50.5552C910.578 50.4135 910.693 50.1834 910.693 49.8647V49.8028C910.693 49.0297 910.475 48.4307 910.038 48.0058C909.607 47.5809 908.964 47.3685 908.108 47.3685C907.217 47.3685 906.515 47.5661 906.002 47.9615C905.494 48.351 905.143 48.7848 904.948 49.2628L902.461 48.6963C902.756 47.8701 903.187 47.2032 903.753 46.6957C904.326 46.1823 904.984 45.8105 905.727 45.5803C906.471 45.3443 907.253 45.2263 908.073 45.2263C908.616 45.2263 909.191 45.2912 909.799 45.421C910.413 45.5449 910.985 45.7751 911.516 46.1115C912.053 46.4478 912.493 46.9288 912.835 47.5543C913.178 48.174 913.349 48.9795 913.349 49.9709V59H910.764V57.1411H910.658C910.487 57.4834 910.23 57.8197 909.888 58.1502C909.545 58.4807 909.106 58.7551 908.569 58.9734C908.032 59.1918 907.388 59.301 906.639 59.301ZM907.214 57.1765C907.946 57.1765 908.572 57.0319 909.091 56.7427C909.616 56.4536 910.014 56.0759 910.286 55.6097C910.563 55.1376 910.702 54.633 910.702 54.096V52.3433C910.608 52.4377 910.425 52.5262 910.153 52.6088C909.888 52.6856 909.584 52.7534 909.241 52.8124C908.899 52.8656 908.566 52.9157 908.241 52.9629C907.917 53.0042 907.645 53.0396 907.427 53.0692C906.913 53.1341 906.444 53.2432 906.019 53.3967C905.6 53.5501 905.264 53.7714 905.01 54.0606C904.762 54.3438 904.638 54.7215 904.638 55.1936C904.638 55.8487 904.88 56.3444 905.364 56.6808C905.848 57.0112 906.465 57.1765 907.214 57.1765ZM917.086 59V40.8711H919.733V47.6075H919.893C920.046 47.3242 920.267 46.9967 920.556 46.6249C920.846 46.2531 921.247 45.9285 921.76 45.6512C922.274 45.3679 922.952 45.2263 923.796 45.2263C924.894 45.2263 925.874 45.5036 926.735 46.0584C927.597 46.6131 928.272 47.4127 928.762 48.4573C929.258 49.5018 929.506 50.7588 929.506 52.2282C929.506 53.6976 929.261 54.9576 928.771 56.008C928.281 57.0526 927.609 57.8581 926.753 58.4246C925.897 58.9852 924.921 59.2656 923.823 59.2656C922.997 59.2656 922.321 59.1269 921.796 58.8495C921.276 58.5722 920.869 58.2476 920.574 57.8758C920.279 57.504 920.052 57.1735 919.893 56.8844H919.671V59H917.086ZM919.68 52.2017C919.68 53.1577 919.819 53.9957 920.096 54.7156C920.374 55.4356 920.775 55.9992 921.3 56.4064C921.825 56.8077 922.469 57.0083 923.23 57.0083C924.021 57.0083 924.682 56.7988 925.213 56.3798C925.744 55.9549 926.145 55.3795 926.416 54.6537C926.694 53.9278 926.833 53.1105 926.833 52.2017C926.833 51.3046 926.697 50.4991 926.425 49.7851C926.16 49.071 925.758 48.5074 925.221 48.0943C924.69 47.6812 924.026 47.4747 923.23 47.4747C922.463 47.4747 921.813 47.6724 921.282 48.0678C920.757 48.4632 920.359 49.0149 920.087 49.7231C919.816 50.4312 919.68 51.2574 919.68 52.2017Z" fill="#656D4A"/>
<path d="M866.202 266.874L883.859 284.531L918.192 250.198" stroke="#A4AC86" stroke-width="4.15455"/>
<path d="M866.202 133.466L883.859 151.123L918.192 116.79" stroke="#A4AC86" stroke-width="4.15455"/>
<path d="M866.202 333.578L883.859 351.235L918.192 316.902" stroke="#A4AC86" stroke-width="4.15455"/>
<path d="M995.563 31.6335C995.469 30.7955 995.079 30.1463 994.395 29.686C993.71 29.2198 992.849 28.9867 991.81 28.9867C991.066 28.9867 990.423 29.1047 989.88 29.3408C989.337 29.5709 988.915 29.8896 988.614 30.2968C988.319 30.6981 988.172 31.1554 988.172 31.6689C988.172 32.0997 988.272 32.4714 988.473 32.7842C988.679 33.097 988.948 33.3596 989.278 33.572C989.615 33.7786 989.975 33.9527 990.358 34.0943C990.742 34.23 991.111 34.3422 991.465 34.4307L993.235 34.891C993.813 35.0326 994.406 35.2244 995.014 35.4664C995.622 35.7083 996.186 36.027 996.705 36.4224C997.224 36.8178 997.643 37.3076 997.962 37.8918C998.287 38.4761 998.449 39.1754 998.449 39.9898C998.449 41.0166 998.183 41.9284 997.652 42.725C997.127 43.5217 996.363 44.1502 995.36 44.6105C994.362 45.0708 993.155 45.301 991.739 45.301C990.382 45.301 989.207 45.0856 988.216 44.6548C987.225 44.224 986.449 43.6132 985.888 42.8224C985.327 42.0257 985.017 41.0815 984.958 39.9898H987.703C987.756 40.6448 987.968 41.1907 988.34 41.6274C988.718 42.0582 989.199 42.3798 989.783 42.5923C990.373 42.7988 991.019 42.9021 991.721 42.9021C992.494 42.9021 993.182 42.7811 993.784 42.5391C994.392 42.2913 994.87 41.949 995.218 41.5123C995.566 41.0697 995.74 40.5533 995.74 39.9632C995.74 39.4262 995.587 38.9865 995.28 38.6443C994.979 38.302 994.569 38.0187 994.049 37.7945C993.536 37.5702 992.955 37.3725 992.306 37.2014L990.163 36.6171C988.712 36.2218 987.561 35.6405 986.711 34.8733C985.867 34.1061 985.445 33.0911 985.445 31.8282C985.445 30.7837 985.729 29.8719 986.295 29.0929C986.862 28.314 987.629 27.7091 988.597 27.2783C989.564 26.8416 990.656 26.6232 991.872 26.6232C993.099 26.6232 994.182 26.8386 995.121 27.2694C996.065 27.7002 996.808 28.2933 997.351 29.0487C997.894 29.7981 998.177 30.6597 998.201 31.6335H995.563ZM1007.23 45.2744C1005.96 45.2744 1004.85 44.9823 1003.9 44.3981C1002.94 43.8138 1002.21 42.9965 1001.68 41.9461C1001.16 40.8956 1000.89 39.6681 1000.89 38.2636C1000.89 36.8532 1001.16 35.6198 1001.68 34.5635C1002.21 33.5071 1002.94 32.6868 1003.9 32.1026C1004.85 31.5184 1005.96 31.2263 1007.23 31.2263C1008.51 31.2263 1009.62 31.5184 1010.57 32.1026C1011.52 32.6868 1012.26 33.5071 1012.78 34.5635C1013.31 35.6198 1013.57 36.8532 1013.57 38.2636C1013.57 39.6681 1013.31 40.8956 1012.78 41.9461C1012.26 42.9965 1011.52 43.8138 1010.57 44.3981C1009.62 44.9823 1008.51 45.2744 1007.23 45.2744ZM1007.24 43.0526C1008.07 43.0526 1008.75 42.8342 1009.29 42.3975C1009.84 41.9608 1010.24 41.3795 1010.5 40.6537C1010.76 39.9278 1010.9 39.1282 1010.9 38.2548C1010.9 37.3873 1010.76 36.5906 1010.5 35.8647C1010.24 35.133 1009.84 34.5458 1009.29 34.1032C1008.75 33.6606 1008.07 33.4393 1007.24 33.4393C1006.41 33.4393 1005.72 33.6606 1005.17 34.1032C1004.63 34.5458 1004.22 35.133 1003.96 35.8647C1003.7 36.5906 1003.57 37.3873 1003.57 38.2548C1003.57 39.1282 1003.7 39.9278 1003.96 40.6537C1004.22 41.3795 1004.63 41.9608 1005.17 42.3975C1005.72 42.8342 1006.41 43.0526 1007.24 43.0526ZM1019.17 26.8711V45H1016.52V26.8711H1019.17ZM1026.69 45.301C1025.83 45.301 1025.05 45.1416 1024.35 44.823C1023.66 44.4984 1023.1 44.0292 1022.7 43.4155C1022.3 42.8017 1022.09 42.0493 1022.09 41.1582C1022.09 40.3911 1022.24 39.7596 1022.54 39.2639C1022.83 38.7682 1023.23 38.3757 1023.73 38.0866C1024.23 37.7974 1024.79 37.5791 1025.41 37.4315C1026.03 37.284 1026.67 37.1719 1027.31 37.0952C1028.12 37.0007 1028.78 36.924 1029.29 36.865C1029.8 36.8001 1030.17 36.6968 1030.4 36.5552C1030.63 36.4135 1030.74 36.1834 1030.74 35.8647V35.8028C1030.74 35.0297 1030.52 34.4307 1030.09 34.0058C1029.66 33.5809 1029.01 33.3685 1028.16 33.3685C1027.27 33.3685 1026.57 33.5661 1026.05 33.9615C1025.54 34.351 1025.19 34.7848 1025 35.2628L1022.51 34.6963C1022.81 33.8701 1023.24 33.2032 1023.8 32.6957C1024.38 32.1823 1025.03 31.8105 1025.78 31.5803C1026.52 31.3443 1027.3 31.2263 1028.12 31.2263C1028.67 31.2263 1029.24 31.2912 1029.85 31.421C1030.46 31.5449 1031.04 31.7751 1031.57 32.1115C1032.1 32.4478 1032.54 32.9288 1032.89 33.5543C1033.23 34.174 1033.4 34.9795 1033.4 35.9709V45H1030.81V43.1411H1030.71C1030.54 43.4834 1030.28 43.8197 1029.94 44.1502C1029.6 44.4807 1029.16 44.7551 1028.62 44.9734C1028.08 45.1918 1027.44 45.301 1026.69 45.301ZM1027.26 43.1765C1028 43.1765 1028.62 43.0319 1029.14 42.7427C1029.67 42.4536 1030.06 42.0759 1030.34 41.6097C1030.61 41.1376 1030.75 40.633 1030.75 40.096V38.3433C1030.66 38.4377 1030.47 38.5262 1030.2 38.6088C1029.94 38.6856 1029.63 38.7534 1029.29 38.8124C1028.95 38.8656 1028.62 38.9157 1028.29 38.9629C1027.97 39.0042 1027.7 39.0396 1027.48 39.0692C1026.96 39.1341 1026.49 39.2432 1026.07 39.3967C1025.65 39.5501 1025.31 39.7714 1025.06 40.0606C1024.81 40.3438 1024.69 40.7215 1024.69 41.1936C1024.69 41.8487 1024.93 42.3444 1025.41 42.6808C1025.9 43.0112 1026.51 43.1765 1027.26 43.1765ZM1036.92 45V31.4033H1039.48V33.5632H1039.62C1039.87 32.8314 1040.31 32.256 1040.93 31.8371C1041.57 31.4122 1042.28 31.1997 1043.08 31.1997C1043.24 31.1997 1043.44 31.2056 1043.66 31.2174C1043.89 31.2292 1044.07 31.244 1044.2 31.2617V33.7933C1044.09 33.7638 1043.91 33.7314 1043.63 33.696C1043.36 33.6547 1043.09 33.634 1042.82 33.634C1042.19 33.634 1041.64 33.7668 1041.15 34.0324C1040.66 34.292 1040.28 34.6549 1040 35.1212C1039.71 35.5815 1039.57 36.1067 1039.57 36.6968V45H1036.92ZM1052.57 26.0213L1046.73 47.7264H1044.36L1050.2 26.0213H1052.57ZM1057.76 45L1053.76 31.4033H1056.5L1059.16 41.3884H1059.3L1061.97 31.4033H1064.7L1067.36 41.3441H1067.49L1070.14 31.4033H1072.87L1068.88 45H1066.18L1063.42 35.1831H1063.22L1060.46 45H1057.76ZM1075.39 45V31.4033H1078.03V45H1075.39ZM1076.72 29.3054C1076.26 29.3054 1075.87 29.1519 1075.54 28.8451C1075.21 28.5323 1075.05 28.1605 1075.05 27.7297C1075.05 27.293 1075.21 26.9212 1075.54 26.6144C1075.87 26.3016 1076.26 26.1452 1076.72 26.1452C1077.18 26.1452 1077.58 26.3016 1077.9 26.6144C1078.23 26.9212 1078.4 27.293 1078.4 27.7297C1078.4 28.1605 1078.23 28.5323 1077.9 28.8451C1077.58 29.1519 1077.18 29.3054 1076.72 29.3054ZM1084.24 36.927V45H1081.59V31.4033H1084.13V33.6163H1084.3C1084.62 32.8963 1085.1 32.318 1085.77 31.8813C1086.44 31.4446 1087.29 31.2263 1088.31 31.2263C1089.24 31.2263 1090.05 31.421 1090.75 31.8105C1091.44 32.1941 1091.98 32.7665 1092.37 33.5278C1092.75 34.2891 1092.94 35.2303 1092.94 36.3516V45H1090.3V36.6703C1090.3 35.6847 1090.04 34.9146 1089.53 34.3599C1089.01 33.7993 1088.31 33.5189 1087.41 33.5189C1086.8 33.5189 1086.25 33.6517 1085.77 33.9173C1085.3 34.1828 1084.92 34.5723 1084.65 35.0857C1084.38 35.5933 1084.24 36.207 1084.24 36.927ZM1101.58 45.2656C1100.48 45.2656 1099.5 44.9852 1098.64 44.4246C1097.79 43.8581 1097.11 43.0526 1096.62 42.008C1096.14 40.9576 1095.9 39.6976 1095.9 38.2282C1095.9 36.7588 1096.14 35.5018 1096.63 34.4573C1097.13 33.4127 1097.81 32.6131 1098.67 32.0584C1099.53 31.5036 1100.51 31.2263 1101.6 31.2263C1102.44 31.2263 1103.12 31.3679 1103.64 31.6512C1104.15 31.9285 1104.56 32.2531 1104.84 32.6249C1105.13 32.9967 1105.35 33.3242 1105.51 33.6075H1105.67V26.8711H1108.32V45H1105.73V42.8844H1105.51C1105.35 43.1735 1105.12 43.504 1104.82 43.8758C1104.53 44.2476 1104.12 44.5722 1103.6 44.8495C1103.08 45.1269 1102.41 45.2656 1101.58 45.2656ZM1102.17 43.0083C1102.93 43.0083 1103.57 42.8077 1104.1 42.4064C1104.63 41.9992 1105.03 41.4356 1105.3 40.7156C1105.58 39.9957 1105.72 39.1577 1105.72 38.2017C1105.72 37.2574 1105.58 36.4312 1105.31 35.7231C1105.04 35.0149 1104.64 34.4632 1104.11 34.0678C1103.59 33.6724 1102.94 33.4747 1102.17 33.4747C1101.37 33.4747 1100.71 33.6812 1100.17 34.0943C1099.64 34.5074 1099.24 35.071 1098.97 35.7851C1098.7 36.4991 1098.57 37.3046 1098.57 38.2017C1098.57 39.1105 1098.71 39.9278 1098.98 40.6537C1099.25 41.3795 1099.65 41.9549 1100.18 42.3798C1100.72 42.7988 1101.38 43.0083 1102.17 43.0083ZM1011.61 82.0988V63.4033H1014.19V65.6075H1014.41C1014.57 65.3242 1014.79 64.9967 1015.08 64.6249C1015.37 64.2531 1015.77 63.9285 1016.28 63.6512C1016.79 63.3679 1017.47 63.2263 1018.32 63.2263C1019.41 63.2263 1020.39 63.5036 1021.26 64.0584C1022.12 64.6131 1022.79 65.4127 1023.28 66.4573C1023.78 67.5018 1024.03 68.7588 1024.03 70.2282C1024.03 71.6976 1023.78 72.9576 1023.29 74.008C1022.8 75.0526 1022.13 75.8581 1021.27 76.4246C1020.42 76.9852 1019.44 77.2656 1018.34 77.2656C1017.52 77.2656 1016.84 77.1269 1016.32 76.8495C1015.8 76.5722 1015.39 76.2476 1015.1 75.8758C1014.8 75.504 1014.57 75.1735 1014.41 74.8844H1014.25V82.0988H1011.61ZM1014.2 70.2017C1014.2 71.1577 1014.34 71.9957 1014.62 72.7156C1014.89 73.4356 1015.3 73.9992 1015.82 74.4064C1016.35 74.8077 1016.99 75.0083 1017.75 75.0083C1018.54 75.0083 1019.2 74.7988 1019.73 74.3798C1020.26 73.9549 1020.67 73.3795 1020.94 72.6537C1021.21 71.9278 1021.35 71.1105 1021.35 70.2017C1021.35 69.3046 1021.22 68.4991 1020.95 67.7851C1020.68 67.071 1020.28 66.5074 1019.74 66.0943C1019.21 65.6812 1018.55 65.4747 1017.75 65.4747C1016.98 65.4747 1016.33 65.6724 1015.8 66.0678C1015.28 66.4632 1014.88 67.0149 1014.61 67.7231C1014.34 68.4312 1014.2 69.2574 1014.2 70.2017ZM1032.72 77.2744C1031.44 77.2744 1030.33 76.9823 1029.38 76.3981C1028.43 75.8138 1027.69 74.9965 1027.17 73.9461C1026.64 72.8956 1026.38 71.6681 1026.38 70.2636C1026.38 68.8532 1026.64 67.6198 1027.17 66.5635C1027.69 65.5071 1028.43 64.6868 1029.38 64.1026C1030.33 63.5184 1031.44 63.2263 1032.72 63.2263C1033.99 63.2263 1035.11 63.5184 1036.06 64.1026C1037.01 64.6868 1037.74 65.5071 1038.27 66.5635C1038.79 67.6198 1039.06 68.8532 1039.06 70.2636C1039.06 71.6681 1038.79 72.8956 1038.27 73.9461C1037.74 74.9965 1037.01 75.8138 1036.06 76.3981C1035.11 76.9823 1033.99 77.2744 1032.72 77.2744ZM1032.73 75.0526C1033.55 75.0526 1034.24 74.8342 1034.78 74.3975C1035.32 73.9608 1035.73 73.3795 1035.99 72.6537C1036.25 71.9278 1036.38 71.1282 1036.38 70.2548C1036.38 69.3873 1036.25 68.5906 1035.99 67.8647C1035.73 67.133 1035.32 66.5458 1034.78 66.1032C1034.24 65.6606 1033.55 65.4393 1032.73 65.4393C1031.9 65.4393 1031.21 65.6606 1030.66 66.1032C1030.11 66.5458 1029.71 67.133 1029.44 67.8647C1029.18 68.5906 1029.05 69.3873 1029.05 70.2548C1029.05 71.1282 1029.18 71.9278 1029.44 72.6537C1029.71 73.3795 1030.11 73.9608 1030.66 74.3975C1031.21 74.8342 1031.9 75.0526 1032.73 75.0526ZM1044.55 77L1040.54 63.4033H1043.28L1045.94 73.3884H1046.08L1048.75 63.4033H1051.49L1054.14 73.3441H1054.27L1056.92 63.4033H1059.66L1055.66 77H1052.96L1050.2 67.1831H1050L1047.24 77H1044.55ZM1067.61 77.2744C1066.27 77.2744 1065.12 76.9882 1064.15 76.4158C1063.19 75.8374 1062.45 75.026 1061.92 73.9815C1061.4 72.931 1061.14 71.7006 1061.14 70.2902C1061.14 68.8975 1061.4 67.67 1061.92 66.6077C1062.45 65.5455 1063.18 64.7164 1064.12 64.1203C1065.06 63.5243 1066.17 63.2263 1067.43 63.2263C1068.2 63.2263 1068.94 63.3531 1069.66 63.6069C1070.38 63.8607 1071.03 64.259 1071.6 64.8019C1072.17 65.3448 1072.62 66.0501 1072.95 66.9176C1073.28 67.7792 1073.45 68.8266 1073.45 70.06V70.9983H1062.64V69.0155H1070.85C1070.85 68.3191 1070.71 67.7024 1070.43 67.1654C1070.15 66.6225 1069.75 66.1946 1069.23 65.8819C1068.73 65.5691 1068.13 65.4127 1067.45 65.4127C1066.7 65.4127 1066.05 65.5957 1065.5 65.9615C1064.95 66.3215 1064.52 66.7936 1064.22 67.3779C1063.93 67.9562 1063.78 68.5847 1063.78 69.2633V70.8124C1063.78 71.7212 1063.94 72.4943 1064.26 73.1317C1064.58 73.769 1065.04 74.2559 1065.61 74.5923C1066.19 74.9227 1066.87 75.088 1067.64 75.088C1068.14 75.088 1068.6 75.0171 1069.01 74.8755C1069.43 74.728 1069.78 74.5096 1070.08 74.2205C1070.38 73.9313 1070.61 73.5743 1070.77 73.1494L1073.28 73.6008C1073.08 74.3385 1072.72 74.9847 1072.2 75.5394C1071.69 76.0882 1071.04 76.5161 1070.26 76.823C1069.49 77.1239 1068.61 77.2744 1067.61 77.2744ZM1076.38 77V63.4033H1078.94V65.5632H1079.08C1079.33 64.8314 1079.77 64.256 1080.39 63.8371C1081.03 63.4122 1081.74 63.1997 1082.54 63.1997C1082.7 63.1997 1082.9 63.2056 1083.12 63.2174C1083.35 63.2292 1083.53 63.244 1083.66 63.2617V65.7933C1083.55 65.7638 1083.37 65.7314 1083.09 65.696C1082.82 65.6547 1082.55 65.634 1082.28 65.634C1081.65 65.634 1081.1 65.7668 1080.61 66.0324C1080.12 66.292 1079.74 66.6549 1079.46 67.1212C1079.17 67.5815 1079.03 68.1067 1079.03 68.6968V77H1076.38Z" fill="#656D4A"/>
<path d="M1021.19 194.284L1038.85 211.941L1073.18 177.608" stroke="#A4AC86" stroke-width="4.15455"/>
<path d="M1021.19 133.466L1038.85 151.123L1073.18 116.79" stroke="#A4AC86" stroke-width="4.15455"/>
<path d="M397.311 199.189L414.968 216.846L449.301 182.513" stroke="white" stroke-width="4.15455"/>
<path d="M397.311 265.893L414.968 283.55L449.301 249.217" stroke="white" stroke-width="4.15455"/>
<path d="M397.311 332.597L414.968 350.254L449.301 315.921" stroke="white" stroke-width="4.15455"/>
<path d="M397.311 399.301L414.968 416.958L449.301 382.625" stroke="white" stroke-width="4.15455"/>
<path d="M347.283 3L347.283 434.615" stroke="white" stroke-width="4.15455"/>
<path d="M1132.04 167.798L54.9619 167.798" stroke="white" stroke-width="4.15455"/>
<path d="M1132.04 236.465L54.9619 236.465" stroke="white" stroke-width="4.15455"/>
<path d="M1132.04 299.245L54.9619 299.245" stroke="white" stroke-width="4.15455"/>
<path d="M1134 369.873L53 369.873" stroke="white" stroke-width="4.15455"/>
<path d="M1134 434.615L53 434.615" stroke="white" stroke-width="4.15455"/>
<path d="M1134 3L55 3" stroke="white" stroke-width="4.15455"/>
<path d="M1134 101.094L53 101.094" stroke="white" stroke-width="4.15455"/>
<path d="M818.136 3L818.136 434.615" stroke="white" stroke-width="4.15455"/>
<path d="M959.392 3L959.392 434.615" stroke="white" stroke-width="4.15455"/>
<path d="M1132.04 3L1132.04 434.615" stroke="white" stroke-width="4.15455"/>
<path d="M661.185 3L661.185 434.615" stroke="white" stroke-width="4.15455"/>
<path d="M504.234 3L504.234 434.615" stroke="white" stroke-width="4.15455"/>
<path d="M53 3L53 435" stroke="white" stroke-width="4.15455"/>
<path d="M369.483 63.0542L366.978 59.3814C366.54 58.7733 365.64 57.168 365.64 57.168L365.567 57.1923C365.567 57.1923 365.737 59.1625 365.737 59.9895V65H360.07V48.9955H365.859L369.775 54.7114H369.824L373.715 48.9955H379.504V65H373.837V59.9895C373.837 59.1625 373.983 57.1923 373.983 57.1923L373.91 57.168C373.91 57.168 373.01 58.7733 372.596 59.3814L370.116 63.0542H369.483Z" fill="#7F5858"/>
<path d="M413.168 53.4709V48.9955H418.835V65H413.338L407.257 57.6545L407.209 57.6788C407.209 57.6788 407.379 59.4544 407.379 60.4759V65H401.712V48.9955H407.379L413.265 56.1221L413.314 56.0978C413.314 56.0978 413.168 54.3952 413.168 53.4709ZM432.796 58.749H426.643V60.4516H434.256V65H420.975V48.9955H433.939V53.5682H426.643V55.1249H432.796V58.749ZM440.295 65L434.895 48.9955H441.34L442.873 53.4953C443.116 54.2493 443.554 57.0221 443.554 57.0221H443.651C443.651 57.0221 444.211 54.5898 444.478 53.8358L446.035 49.482H450.413L451.97 53.8358C452.237 54.6141 452.797 57.0221 452.797 57.0221H452.894C452.894 57.0221 453.356 54.2493 453.599 53.4953L455.132 48.9955H461.577L456.153 65H450.607L448.978 60.403C448.71 59.6733 448.272 57.7518 448.272 57.7518H448.175C448.175 57.7518 447.737 59.7219 447.494 60.403L445.816 65H440.295ZM474.53 58.749H468.376V60.4516H475.989V65H462.709V48.9955H475.673V53.5682H468.376V55.1249H474.53V58.749ZM477.626 65V48.9955H485.166C490.103 48.9955 492.39 51.3549 492.39 54.833C492.39 56.8275 491.684 58.4328 490.225 59.3814V59.4544L493.071 65H486.844L484.485 60.4759H483.293V65H477.626ZM483.293 56.6086H484.923C486.309 56.6086 486.893 56.1221 486.893 55.0763C486.893 54.2736 486.479 53.5926 484.971 53.5926H483.293V56.6086Z" fill="#7F5858"/>
<path d="M396.412 59.3422C397.537 57.7455 396.594 55.6057 394.459 55.2103C395.567 54.2181 394.698 52.7538 393.486 52.2351C392.871 51.9717 392.637 51.6606 392.432 51.3363C392.041 50.7166 391.897 49.8279 390.869 49.3218C390.16 48.9727 389.159 48.8798 388.621 49.1823C388.26 49.3853 388.679 49.4787 388.988 49.7167C389.501 50.1121 389.526 50.7394 389.077 51.2434C388.5 51.8925 388.036 52.0488 387.514 52.2351C386.271 52.6787 385.414 54.2181 386.521 55.2103C384.354 55.6118 383.43 57.8109 384.638 59.4148C383.136 59.7487 382.015 61.0287 382.015 62.561C382.015 63.5487 382.481 64.4313 383.215 65.0246H386.785H387.778H391.941H394.283H398.29C399.023 64.4313 399.49 63.5487 399.49 62.561C399.49 60.8775 398.139 59.496 396.412 59.3422Z" fill="#AB8585"/>
</svg>
